<?xml version="1.0" encoding="utf-8"?>
<!-- Generator: Adobe Illustrator 19.1.0, SVG Export Plug-In . SVG Version: 6.00 Build 0)  -->
<svg version="1.1" id="Layer_1" xmlns="http://www.w3.org/2000/svg" xmlns:xlink="http://www.w3.org/1999/xlink" x="0px" y="0px"
	 viewBox="0 0 694.6 293.5" style="enable-background:new 0 0 694.6 293.5;" xml:space="preserve">
<style type="text/css">
	.st0{fill:#F1F2F2;stroke:#000000;stroke-width:0.25;stroke-miterlimit:10;}
	.st1{fill:#B3DDC8;stroke:#000000;stroke-width:0.25;stroke-miterlimit:10;}
	.st2{fill:#FCEC98;stroke:#000000;stroke-width:0.25;stroke-miterlimit:10;}
	.st3{fill:#F9A67D;stroke:#000000;stroke-width:0.25;stroke-miterlimit:10;}
	.st4{fill:#FBB57F;stroke:#000000;stroke-width:0.25;stroke-miterlimit:10;}
	.st5{fill:#F59DB2;stroke:#000000;stroke-width:0.25;stroke-miterlimit:10;}
	.st6{fill:#9B85BE;stroke:#000000;stroke-width:0.25;stroke-miterlimit:10;}
	.st7{font-family:'CourierNewPSMT';}
	.st8{font-size:6px;}
	.st9{fill:#FCEC98;stroke:#939598;stroke-width:2;stroke-miterlimit:10;}
	.st10{fill:#80CAA5;stroke:#939598;stroke-width:2;stroke-miterlimit:10;}
	.st11{fill:#FBB57F;stroke:#939598;stroke-width:2;stroke-miterlimit:10;}
	.st12{fill:#F59DB2;stroke:#939598;stroke-width:2;stroke-miterlimit:10;}
	.st13{fill:#9B85BE;stroke:#939598;stroke-width:2;stroke-miterlimit:10;}
	.st14{fill:#AADFF1;stroke:#939598;stroke-width:2;stroke-miterlimit:10;}
	.st15{fill:none;stroke:#000000;stroke-width:0.25;stroke-miterlimit:10;}
</style>
<g>
	<g>
		<polygon class="st0" points="159.9,120.7 233.3,101.6 273.4,136.1 264,133.9 232.6,106 169.4,122.3 		"/>
		<polygon class="st0" points="169.4,122.3 232.4,106 232.4,110.3 173.2,125.7 		"/>
		<polygon class="st0" points="264,133.9 232.4,106 232.4,110.3 260.1,134.7 		"/>
	</g>
	<g>
		<g>
			<polyline class="st1" points="200.7,146.1 171.2,120.4 232.5,104.4 262,130.1 200.7,146.1 			"/>
			<polygon class="st1" points="200.7,151 171.2,125.3 171.2,120.4 200.7,146.1 			"/>
			<polygon class="st1" points="262,130.1 200.7,146.1 200.7,151 262,135 			"/>
		</g>
		<g>
			<polyline class="st1" points="187.1,125.3 183.2,121.9 191.2,119.8 195.1,123.2 187.1,125.3 			"/>
			<polygon class="st1" points="187.1,125.9 183.2,122.5 183.2,121.9 187.1,125.3 			"/>
			<polygon class="st1" points="195.1,123.2 187.1,125.3 187.1,125.9 195.1,123.8 			"/>
		</g>
		<g>
			<polyline class="st1" points="192.8,130.2 188.9,126.9 197,124.8 200.8,128.1 192.8,130.2 			"/>
			<polygon class="st1" points="192.8,130.9 188.9,127.5 188.9,126.9 192.8,130.2 			"/>
			<polygon class="st1" points="200.8,128.1 192.8,130.2 192.8,130.9 200.8,128.8 			"/>
		</g>
		<g>
			<polyline class="st1" points="198.6,135.3 194.8,131.9 202.8,129.8 206.7,133.2 198.6,135.3 			"/>
			<polygon class="st1" points="198.6,135.9 194.8,132.6 194.8,131.9 198.6,135.3 			"/>
			<polygon class="st1" points="206.7,133.2 198.6,135.3 198.6,135.9 206.7,133.8 			"/>
		</g>
		<g>
			<polyline class="st1" points="204.5,140.5 200.6,137.1 208.6,135 212.5,138.4 204.5,140.5 			"/>
			<polygon class="st1" points="204.5,141.1 200.6,137.7 200.6,137.1 204.5,140.5 			"/>
			<polygon class="st1" points="212.5,138.4 204.5,140.5 204.5,141.1 212.5,139 			"/>
		</g>
	</g>
	<g>
		<polyline class="st0" points="273.4,140.4 273.4,136.1 200,155 200,159.4 273.4,140.3 		"/>
		<polygon class="st0" points="159.9,120.7 169.4,122.3 201.1,150.3 264,133.9 273.4,136.1 200,155 		"/>
		<polygon class="st0" points="159.9,120.7 159.9,125 200,159.4 200,155 		"/>
	</g>
</g>
<g>
	<g>
		<polygon class="st0" points="19.9,50.7 93.3,31.6 133.4,66.1 124,63.9 92.6,36 29.4,52.3 		"/>
		<polygon class="st0" points="29.4,52.3 92.4,36 92.4,40.3 33.2,55.7 		"/>
		<polygon class="st0" points="124,63.9 92.4,36 92.4,40.3 120.1,64.7 		"/>
	</g>
	<g>
		<g>
			<polyline class="st2" points="60.7,76.1 31.2,50.4 92.5,34.4 122,60.1 60.7,76.1 			"/>
			<polygon class="st2" points="60.7,81 31.2,55.3 31.2,50.4 60.7,76.1 			"/>
			<polygon class="st2" points="122,60.1 60.7,76.1 60.7,81 122,65 			"/>
		</g>
		<g>
			<polyline class="st2" points="47.1,55.3 43.2,51.9 51.2,49.8 55.1,53.2 47.1,55.3 			"/>
			<polygon class="st2" points="47.1,55.9 43.2,52.5 43.2,51.9 47.1,55.3 			"/>
			<polygon class="st2" points="55.1,53.2 47.1,55.3 47.1,55.9 55.1,53.8 			"/>
		</g>
		<g>
			<polyline class="st2" points="52.8,60.2 48.9,56.9 57,54.8 60.8,58.1 52.8,60.2 			"/>
			<polygon class="st2" points="52.8,60.9 48.9,57.5 48.9,56.9 52.8,60.2 			"/>
			<polygon class="st2" points="60.8,58.1 52.8,60.2 52.8,60.9 60.8,58.8 			"/>
		</g>
		<g>
			<polyline class="st2" points="58.6,65.3 54.8,61.9 62.8,59.8 66.7,63.2 58.6,65.3 			"/>
			<polygon class="st2" points="58.6,65.9 54.8,62.6 54.8,61.9 58.6,65.3 			"/>
			<polygon class="st2" points="66.7,63.2 58.6,65.3 58.6,65.9 66.7,63.8 			"/>
		</g>
		<g>
			<polyline class="st2" points="64.5,70.5 60.6,67.1 68.6,65 72.5,68.4 64.5,70.5 			"/>
			<polygon class="st2" points="64.5,71.1 60.6,67.7 60.6,67.1 64.5,70.5 			"/>
			<polygon class="st2" points="72.5,68.4 64.5,70.5 64.5,71.1 72.5,69 			"/>
		</g>
	</g>
	<g>
		<polyline class="st0" points="133.4,70.4 133.4,66.1 60,85 60,89.4 133.4,70.3 		"/>
		<polygon class="st0" points="19.9,50.7 29.4,52.3 61.1,80.3 124,63.9 133.4,66.1 60,85 		"/>
		<polygon class="st0" points="19.9,50.7 19.9,55 60,89.4 60,85 		"/>
	</g>
</g>
<g>
	<g>
		<polygon class="st0" points="79.9,230.7 153.3,211.6 193.4,246.1 184,243.9 152.6,216 89.4,232.3 		"/>
		<polygon class="st0" points="89.4,232.3 152.4,216 152.4,220.3 93.2,235.7 		"/>
		<polygon class="st0" points="184,243.9 152.4,216 152.4,220.3 180.1,244.7 		"/>
	</g>
	<g>
		<g>
			<polyline class="st3" points="120.7,256.1 91.2,230.4 152.5,214.4 182,240.1 120.7,256.1 			"/>
			<polygon class="st3" points="120.7,261 91.2,235.3 91.2,230.4 120.7,256.1 			"/>
			<polygon class="st3" points="182,240.1 120.7,256.1 120.7,261 182,245 			"/>
		</g>
		<g>
			<polyline class="st4" points="107.1,235.3 103.2,231.9 111.2,229.8 115.1,233.2 107.1,235.3 			"/>
			<polygon class="st4" points="107.1,235.9 103.2,232.5 103.2,231.9 107.1,235.3 			"/>
			<polygon class="st4" points="115.1,233.2 107.1,235.3 107.1,235.9 115.1,233.8 			"/>
		</g>
		<g>
			<polyline class="st4" points="112.8,240.2 108.9,236.9 117,234.8 120.8,238.1 112.8,240.2 			"/>
			<polygon class="st4" points="112.8,240.9 108.9,237.5 108.9,236.9 112.8,240.2 			"/>
			<polygon class="st4" points="120.8,238.1 112.8,240.2 112.8,240.9 120.8,238.8 			"/>
		</g>
		<g>
			<polyline class="st4" points="118.6,245.3 114.8,241.9 122.8,239.8 126.7,243.2 118.6,245.3 			"/>
			<polygon class="st4" points="118.6,245.9 114.8,242.6 114.8,241.9 118.6,245.3 			"/>
			<polygon class="st4" points="126.7,243.2 118.6,245.3 118.6,245.9 126.7,243.8 			"/>
		</g>
		<g>
			<polyline class="st4" points="124.5,250.5 120.6,247.1 128.6,245 132.5,248.4 124.5,250.5 			"/>
			<polygon class="st4" points="124.5,251.1 120.6,247.7 120.6,247.1 124.5,250.5 			"/>
			<polygon class="st4" points="132.5,248.4 124.5,250.5 124.5,251.1 132.5,249 			"/>
		</g>
	</g>
	<g>
		<polyline class="st0" points="193.4,250.4 193.4,246.1 120,265 120,269.4 193.4,250.3 		"/>
		<polygon class="st0" points="79.9,230.7 89.4,232.3 121.1,260.3 184,243.9 193.4,246.1 120,265 		"/>
		<polygon class="st0" points="79.9,230.7 79.9,235 120,269.4 120,265 		"/>
	</g>
</g>
<g>
	<g>
		<polygon class="st0" points="339.9,150.7 413.3,131.6 453.4,166.1 444,163.9 412.6,136 349.4,152.3 		"/>
		<polygon class="st0" points="349.4,152.3 412.4,136 412.4,140.3 353.2,155.7 		"/>
		<polygon class="st0" points="444,163.9 412.4,136 412.4,140.3 440.1,164.7 		"/>
	</g>
	<g>
		<g>
			<polyline class="st5" points="380.7,176.1 351.2,150.4 412.5,134.4 442,160.1 380.7,176.1 			"/>
			<polygon class="st5" points="380.7,181 351.2,155.3 351.2,150.4 380.7,176.1 			"/>
			<polygon class="st5" points="442,160.1 380.7,176.1 380.7,181 442,165 			"/>
		</g>
		<g>
			<polyline class="st5" points="367.1,155.3 363.2,151.9 371.2,149.8 375.1,153.2 367.1,155.3 			"/>
			<polygon class="st5" points="367.1,155.9 363.2,152.5 363.2,151.9 367.1,155.3 			"/>
			<polygon class="st5" points="375.1,153.2 367.1,155.3 367.1,155.9 375.1,153.8 			"/>
		</g>
		<g>
			<polyline class="st5" points="372.8,160.2 368.9,156.9 377,154.8 380.8,158.1 372.8,160.2 			"/>
			<polygon class="st5" points="372.8,160.9 368.9,157.5 368.9,156.9 372.8,160.2 			"/>
			<polygon class="st5" points="380.8,158.1 372.8,160.2 372.8,160.9 380.8,158.8 			"/>
		</g>
		<g>
			<polyline class="st5" points="378.6,165.3 374.8,161.9 382.8,159.8 386.7,163.2 378.6,165.3 			"/>
			<polygon class="st5" points="378.6,165.9 374.8,162.6 374.8,161.9 378.6,165.3 			"/>
			<polygon class="st5" points="386.7,163.2 378.6,165.3 378.6,165.9 386.7,163.8 			"/>
		</g>
		<g>
			<polyline class="st5" points="384.5,170.5 380.6,167.1 388.6,165 392.5,168.4 384.5,170.5 			"/>
			<polygon class="st5" points="384.5,171.1 380.6,167.7 380.6,167.1 384.5,170.5 			"/>
			<polygon class="st5" points="392.5,168.4 384.5,170.5 384.5,171.1 392.5,169 			"/>
		</g>
	</g>
	<g>
		<polyline class="st0" points="453.4,170.4 453.4,166.1 380,185 380,189.4 453.4,170.3 		"/>
		<polygon class="st0" points="339.9,150.7 349.4,152.3 381.1,180.3 444,163.9 453.4,166.1 380,185 		"/>
		<polygon class="st0" points="339.9,150.7 339.9,155 380,189.4 380,185 		"/>
	</g>
</g>
<g>
	<g>
		<polygon class="st0" points="359.9,50.7 433.3,31.6 473.4,66.1 464,63.9 432.6,36 369.4,52.3 		"/>
		<polygon class="st0" points="369.4,52.3 432.4,36 432.4,40.3 373.2,55.7 		"/>
		<polygon class="st0" points="464,63.9 432.4,36 432.4,40.3 460.1,64.7 		"/>
	</g>
	<g>
		<g>
			<polyline class="st6" points="400.7,76.1 371.2,50.4 432.5,34.4 462,60.1 400.7,76.1 			"/>
			<polygon class="st6" points="400.7,81 371.2,55.3 371.2,50.4 400.7,76.1 			"/>
			<polygon class="st6" points="462,60.1 400.7,76.1 400.7,81 462,65 			"/>
		</g>
		<g>
			<polyline class="st6" points="387.1,55.3 383.2,51.9 391.2,49.8 395.1,53.2 387.1,55.3 			"/>
			<polygon class="st6" points="387.1,55.9 383.2,52.5 383.2,51.9 387.1,55.3 			"/>
			<polygon class="st6" points="395.1,53.2 387.1,55.3 387.1,55.9 395.1,53.8 			"/>
		</g>
		<g>
			<polyline class="st6" points="392.8,60.2 388.9,56.9 397,54.8 400.8,58.1 392.8,60.2 			"/>
			<polygon class="st6" points="392.8,60.9 388.9,57.5 388.9,56.9 392.8,60.2 			"/>
			<polygon class="st6" points="400.8,58.1 392.8,60.2 392.8,60.9 400.8,58.8 			"/>
		</g>
		<g>
			<polyline class="st6" points="398.6,65.3 394.8,61.9 402.8,59.8 406.7,63.2 398.6,65.3 			"/>
			<polygon class="st6" points="398.6,65.9 394.8,62.6 394.8,61.9 398.6,65.3 			"/>
			<polygon class="st6" points="406.7,63.2 398.6,65.3 398.6,65.9 406.7,63.8 			"/>
		</g>
		<g>
			<polyline class="st6" points="404.5,70.5 400.6,67.1 408.6,65 412.5,68.4 404.5,70.5 			"/>
			<polygon class="st6" points="404.5,71.1 400.6,67.7 400.6,67.1 404.5,70.5 			"/>
			<polygon class="st6" points="412.5,68.4 404.5,70.5 404.5,71.1 412.5,69 			"/>
		</g>
	</g>
	<g>
		<polyline class="st0" points="473.4,70.4 473.4,66.1 400,85 400,89.4 473.4,70.3 		"/>
		<polygon class="st0" points="359.9,50.7 369.4,52.3 401.1,80.3 464,63.9 473.4,66.1 400,85 		"/>
		<polygon class="st0" points="359.9,50.7 359.9,55 400,89.4 400,85 		"/>
	</g>
</g>
<text transform="matrix(1 0 0 1 582.6368 175.8813)" class="st7 st8">System Management Mode</text>
<text transform="matrix(1 0 0 1 582.6373 99.4872)" class="st7 st8">Protected Mode</text>
<text transform="matrix(1 0 0 1 582.6374 80.3886)" class="st7 st8">Real Address Mode</text>
<text transform="matrix(1 0 0 1 582.6373 118.5858)" class="st7 st8">Virtual Mode</text>
<text transform="matrix(1 0 0 1 582.6375 137.684)" class="st7 st8">Long Mode</text>
<text transform="matrix(1 0 0 1 582.6367 156.7829)" class="st7 st8">Compatibility Mode</text>
<rect x="554.5" y="74.2" class="st9" width="12.3" height="12.3"/>
<rect x="554.5" y="93.3" class="st10" width="12.3" height="12.3"/>
<rect x="554.5" y="112.4" class="st11" width="12.3" height="12.3"/>
<rect x="554.5" y="131.5" class="st12" width="12.3" height="12.3"/>
<rect x="554.5" y="150.6" class="st13" width="12.3" height="12.3"/>
<rect x="554.5" y="169.7" class="st14" width="12.3" height="12.3"/>
<line class="st15" x1="516.3" y1="-7.6" x2="516.3" y2="300"/>
</svg>
