<?xml version="1.0" encoding="utf-8"?>
<!-- Generator: Adobe Illustrator 19.1.0, SVG Export Plug-In . SVG Version: 6.00 Build 0)  -->
<svg version="1.1" id="Layer_1" xmlns="http://www.w3.org/2000/svg" xmlns:xlink="http://www.w3.org/1999/xlink" x="0px" y="0px"
	 viewBox="0 0 482.6 262" style="enable-background:new 0 0 482.6 262;" xml:space="preserve">
<style type="text/css">
	.st0{fill:#B3DEF2;stroke:#000000;stroke-width:0.25;stroke-miterlimit:10;}
	.st1{fill:#FCEC98;stroke:#000000;stroke-width:0.25;stroke-miterlimit:10;}
	.st2{fill:none;stroke:#000000;stroke-width:0.25;stroke-miterlimit:10;}
</style>
<g>
	<g>
		<polygon class="st0" points="126.2,146.6 154.5,171.1 154.5,166.9 126.2,142.3 		"/>
		<polygon class="st0" points="168.6,163.2 140.3,138.6 140.3,138.6 126.2,142.3 154.5,166.9 		"/>
		<polyline class="st0" points="154.5,171.1 154.5,166.9 168.6,163.2 168.6,167.5 168.7,167.5 154.5,171.1 		"/>
	</g>
	<g>
		<polygon class="st0" points="88.2,113.6 116.5,138.1 116.5,133.9 88.2,109.3 		"/>
		<polygon class="st0" points="130.6,130.2 102.3,105.6 102.3,105.6 88.2,109.3 116.5,133.9 		"/>
		<polyline class="st0" points="116.5,138.1 116.5,133.9 130.6,130.2 130.6,134.5 130.7,134.5 116.5,138.1 		"/>
	</g>
	<g>
		<polygon class="st0" points="86.7,115.9 72.6,119.6 130.1,169.6 144.2,165.9 		"/>
		<polygon class="st0" points="144.2,170.2 130.1,173.9 130.1,169.6 144.2,165.9 		"/>
		<polygon class="st0" points="130.1,173.9 130.1,169.6 72.6,119.6 72.6,123.8 		"/>
	</g>
</g>
<g>
	<polygon class="st0" points="391.9,129.7 380.2,119.5 149.4,179.5 161.2,189.7 	"/>
	<polyline class="st0" points="161.2,189.7 161.2,193.9 161.2,189.7 391.9,129.7 391.9,134 161.2,193.9 	"/>
	<polygon class="st0" points="149.4,183.8 161.2,193.9 161.2,189.7 149.4,179.5 	"/>
</g>
<g>
	<g>
		<polygon class="st0" points="313.2,97.6 341.5,122.1 341.5,117.9 313.2,93.3 		"/>
		<polygon class="st0" points="355.6,114.2 327.3,89.6 327.3,89.6 313.2,93.3 341.5,117.9 		"/>
		<polyline class="st0" points="341.5,122.1 341.5,117.9 355.6,114.2 355.6,118.5 355.7,118.5 341.5,122.1 		"/>
	</g>
	<g>
		<polygon class="st0" points="275.2,64.6 303.5,89.1 303.5,84.9 275.2,60.3 		"/>
		<polygon class="st0" points="317.6,81.2 289.3,56.6 289.3,56.6 275.2,60.3 303.5,84.9 		"/>
		<polyline class="st0" points="303.5,89.1 303.5,84.9 317.6,81.2 317.6,85.5 317.7,85.5 303.5,89.1 		"/>
	</g>
	<g>
		<polygon class="st0" points="314.7,52.9 300.6,56.6 358.1,106.6 372.2,102.9 		"/>
		<polygon class="st0" points="372.2,107.2 358.1,110.9 358.1,106.6 372.2,102.9 		"/>
		<polygon class="st0" points="358.1,110.9 358.1,106.6 300.6,56.6 300.6,60.8 		"/>
	</g>
</g>
<g>
	<polygon class="st1" points="183.3,80.3 258.5,145.7 258.5,134.4 183.3,69 	"/>
	<polygon class="st1" points="334.2,126.1 258.5,145.7 258.5,134.4 334.2,114.8 	"/>
	<polygon class="st1" points="333.9,114.8 258.8,49.4 183.3,69 258.5,134.4 	"/>
</g>
<g>
	<polygon class="st1" points="101.3,101.3 176.5,166.7 176.5,155.4 101.3,90 	"/>
	<polygon class="st1" points="252.2,147.1 176.5,166.7 176.5,155.4 252.2,135.8 	"/>
	<polygon class="st1" points="251.9,135.8 176.8,70.4 101.3,90 176.5,155.4 	"/>
</g>
<g>
	<g>
		<g>
			<g>
				<polyline class="st1" points="159.6,223 8.9,91.9 321.5,10.6 472.3,141.7 159.7,223 				"/>
				<polygon class="st1" points="159.6,247.9 8.9,116.8 8.9,91.9 159.6,223 				"/>
				<polygon class="st1" points="472.3,141.7 159.6,223 159.6,247.9 472.3,166.6 				"/>
			</g>
		</g>
	</g>
	<g>
		<line class="st2" x1="35.4" y1="95" x2="312.8" y2="22.9"/>
		<line class="st2" x1="35.4" y1="95" x2="168.4" y2="210.7"/>
		<line class="st2" x1="168.4" y1="210.7" x2="445.8" y2="138.6"/>
		<line class="st2" x1="312.8" y1="22.9" x2="445.8" y2="138.6"/>
		<line class="st2" x1="53.1" y1="110.4" x2="312.8" y2="42.9"/>
		<line class="st2" x1="312.8" y1="42.9" x2="428.1" y2="143.2"/>
		<line class="st2" x1="312.8" y1="22.9" x2="312.8" y2="42.9"/>
	</g>
</g>
<g>
	<g>
		<polygon class="st0" points="126.2,146.6 154.5,171.1 154.5,166.9 126.2,142.3 		"/>
		<polygon class="st0" points="168.6,163.2 140.3,138.6 140.3,138.6 126.2,142.3 154.5,166.9 		"/>
		<polyline class="st0" points="154.5,171.1 154.5,166.9 168.6,163.2 168.6,167.5 168.7,167.5 154.5,171.1 		"/>
	</g>
	<g>
		<polygon class="st0" points="88.2,113.6 116.5,138.1 116.5,133.9 88.2,109.3 		"/>
		<polygon class="st0" points="130.6,130.2 102.3,105.6 102.3,105.6 88.2,109.3 116.5,133.9 		"/>
		<polyline class="st0" points="116.5,138.1 116.5,133.9 130.6,130.2 130.6,134.5 130.7,134.5 116.5,138.1 		"/>
	</g>
	<g>
		<polygon class="st0" points="86.7,115.9 72.6,119.6 130.1,169.6 144.2,165.9 		"/>
		<polygon class="st0" points="144.2,170.2 130.1,173.9 130.1,169.6 144.2,165.9 		"/>
		<polygon class="st0" points="130.1,173.9 130.1,169.6 72.6,119.6 72.6,123.8 		"/>
	</g>
</g>
<g>
	<polygon class="st0" points="391.9,129.7 380.2,119.5 149.4,179.5 161.2,189.7 	"/>
	<polyline class="st0" points="161.2,189.7 161.2,193.9 161.2,189.7 391.9,129.7 391.9,134 161.2,193.9 	"/>
	<polygon class="st0" points="149.4,183.8 161.2,193.9 161.2,189.7 149.4,179.5 	"/>
</g>
<g>
	<g>
		<polygon class="st0" points="313.2,97.6 341.5,122.1 341.5,117.9 313.2,93.3 		"/>
		<polygon class="st0" points="355.6,114.2 327.3,89.6 327.3,89.6 313.2,93.3 341.5,117.9 		"/>
		<polyline class="st0" points="341.5,122.1 341.5,117.9 355.6,114.2 355.6,118.5 355.7,118.5 341.5,122.1 		"/>
	</g>
	<g>
		<polygon class="st0" points="275.2,64.6 303.5,89.1 303.5,84.9 275.2,60.3 		"/>
		<polygon class="st0" points="317.6,81.2 289.3,56.6 289.3,56.6 275.2,60.3 303.5,84.9 		"/>
		<polyline class="st0" points="303.5,89.1 303.5,84.9 317.6,81.2 317.6,85.5 317.7,85.5 303.5,89.1 		"/>
	</g>
	<g>
		<polygon class="st0" points="314.7,52.9 300.6,56.6 358.1,106.6 372.2,102.9 		"/>
		<polygon class="st0" points="372.2,107.2 358.1,110.9 358.1,106.6 372.2,102.9 		"/>
		<polygon class="st0" points="358.1,110.9 358.1,106.6 300.6,56.6 300.6,60.8 		"/>
	</g>
</g>
<g>
	<polygon class="st1" points="183.3,80.3 258.5,145.7 258.5,134.4 183.3,69 	"/>
	<polygon class="st1" points="334.2,126.1 258.5,145.7 258.5,134.4 334.2,114.8 	"/>
	<polygon class="st1" points="333.9,114.8 258.8,49.4 183.3,69 258.5,134.4 	"/>
</g>
<g>
	<polygon class="st1" points="101.3,101.3 176.5,166.7 176.5,155.4 101.3,90 	"/>
	<polygon class="st1" points="252.2,147.1 176.5,166.7 176.5,155.4 252.2,135.8 	"/>
	<polygon class="st1" points="251.9,135.8 176.8,70.4 101.3,90 176.5,155.4 	"/>
</g>
<g>
	<polygon class="st1" points="299.4,161.8 263.9,171.1 278,183.4 313.5,174.1 	"/>
	<polyline class="st1" points="278,188.1 278,183.4 313.5,174.1 313.5,178.9 313.5,178.7 278,188 	"/>
	<polygon class="st1" points="278,188.1 263.9,175.8 263.9,171.1 278,183.4 	"/>
</g>
<polyline class="st1" points="159.6,223 472.3,141.7 445.8,138.6 168.4,210.7 159.7,223 "/>
<line class="st2" x1="312.8" y1="22.9" x2="321.5" y2="10.6"/>
<line class="st2" x1="35.4" y1="95" x2="8.9" y2="91.9"/>
</svg>
