<?xml version="1.0" encoding="utf-8"?>
<!-- Generator: Adobe Illustrator 19.1.0, SVG Export Plug-In . SVG Version: 6.00 Build 0)  -->
<svg version="1.1" id="Layer_1" xmlns="http://www.w3.org/2000/svg" xmlns:xlink="http://www.w3.org/1999/xlink" x="0px" y="0px"
	 viewBox="-154 88 482.6 370" style="enable-background:new -154 88 482.6 370;" xml:space="preserve">
<style type="text/css">
	.st0{fill:#FFFFFF;stroke:#231F20;stroke-width:0.25;stroke-miterlimit:10;}
	.st1{fill:#231F20;}
	.st2{font-family:'CourierNewPSMT';}
	.st3{font-size:7.7734px;}
	.st4{fill:none;stroke:#231F20;stroke-width:0.25;stroke-miterlimit:10;}
	.st5{fill:none;stroke:#BBBDBF;stroke-width:0.25;stroke-miterlimit:10;}
	.st6{fill:#231F20;stroke:#231F20;stroke-width:0.25;stroke-miterlimit:10;}
	.st7{fill:#E6E7E8;stroke:#231F20;stroke-width:0.25;stroke-miterlimit:10;}
</style>
<g>
	<rect x="-111" y="247.1" class="st0" width="15.3" height="8.3"/>
	<text transform="matrix(1 0 0 1 -108.0078 253.4024)" class="st1 st2 st3">CS</text>
	<line class="st4" x1="-103.3" y1="255.5" x2="-103.3" y2="256.3"/>
	<line class="st4" x1="-105.5" y1="255.5" x2="-105.5" y2="256.3"/>
	<line class="st4" x1="-101.2" y1="255.5" x2="-101.2" y2="256.3"/>
	<line class="st4" x1="-99" y1="255.5" x2="-99" y2="256.3"/>
	<line class="st4" x1="-107.7" y1="255.5" x2="-107.7" y2="256.3"/>
	<line class="st4" x1="-103.3" y1="246.3" x2="-103.3" y2="247.1"/>
	<line class="st4" x1="-105.5" y1="246.3" x2="-105.5" y2="247.1"/>
	<line class="st4" x1="-101.2" y1="246.3" x2="-101.2" y2="247.1"/>
	<line class="st4" x1="-99" y1="246.3" x2="-99" y2="247.1"/>
	<line class="st4" x1="-107.7" y1="246.3" x2="-107.7" y2="247.1"/>
</g>
<g>
	<rect x="-111" y="260.1" class="st0" width="15.3" height="8.3"/>
	<text transform="matrix(1 0 0 1 -108.0078 266.3584)" class="st1 st2 st3">DS</text>
	<line class="st4" x1="-103.3" y1="268.4" x2="-103.3" y2="269.3"/>
	<line class="st4" x1="-105.5" y1="268.4" x2="-105.5" y2="269.3"/>
	<line class="st4" x1="-101.2" y1="268.4" x2="-101.2" y2="269.3"/>
	<line class="st4" x1="-99" y1="268.4" x2="-99" y2="269.3"/>
	<line class="st4" x1="-107.7" y1="268.4" x2="-107.7" y2="269.3"/>
	<line class="st4" x1="-103.3" y1="259.2" x2="-103.3" y2="260.1"/>
	<line class="st4" x1="-105.5" y1="259.2" x2="-105.5" y2="260.1"/>
	<line class="st4" x1="-101.2" y1="259.2" x2="-101.2" y2="260.1"/>
	<line class="st4" x1="-99" y1="259.2" x2="-99" y2="260.1"/>
	<line class="st4" x1="-107.7" y1="259.2" x2="-107.7" y2="260.1"/>
</g>
<g>
	<rect x="-111" y="311.9" class="st0" width="15.3" height="8.3"/>
	<text transform="matrix(1 0 0 1 -108.0078 318.1797)" class="st1 st2 st3">SS</text>
	<line class="st4" x1="-103.3" y1="320.2" x2="-103.3" y2="321.1"/>
	<line class="st4" x1="-105.5" y1="320.2" x2="-105.5" y2="321.1"/>
	<line class="st4" x1="-101.2" y1="320.2" x2="-101.2" y2="321.1"/>
	<line class="st4" x1="-99" y1="320.2" x2="-99" y2="321.1"/>
	<line class="st4" x1="-107.7" y1="320.2" x2="-107.7" y2="321.1"/>
	<line class="st4" x1="-103.3" y1="311" x2="-103.3" y2="311.9"/>
	<line class="st4" x1="-105.5" y1="311" x2="-105.5" y2="311.9"/>
	<line class="st4" x1="-101.2" y1="311" x2="-101.2" y2="311.9"/>
	<line class="st4" x1="-99" y1="311" x2="-99" y2="311.9"/>
	<line class="st4" x1="-107.7" y1="311" x2="-107.7" y2="311.9"/>
</g>
<g>
	<rect x="-111" y="273" class="st0" width="15.3" height="8.3"/>
	<text transform="matrix(1 0 0 1 -108.0078 279.3135)" class="st1 st2 st3">ES</text>
	<line class="st4" x1="-103.3" y1="281.4" x2="-103.3" y2="282.2"/>
	<line class="st4" x1="-105.5" y1="281.4" x2="-105.5" y2="282.2"/>
	<line class="st4" x1="-101.2" y1="281.4" x2="-101.2" y2="282.2"/>
	<line class="st4" x1="-99" y1="281.4" x2="-99" y2="282.2"/>
	<line class="st4" x1="-107.7" y1="281.4" x2="-107.7" y2="282.2"/>
	<line class="st4" x1="-103.3" y1="272.2" x2="-103.3" y2="273"/>
	<line class="st4" x1="-105.5" y1="272.2" x2="-105.5" y2="273"/>
	<line class="st4" x1="-101.2" y1="272.2" x2="-101.2" y2="273"/>
	<line class="st4" x1="-99" y1="272.2" x2="-99" y2="273"/>
	<line class="st4" x1="-107.7" y1="272.2" x2="-107.7" y2="273"/>
</g>
<g>
	<rect x="-111" y="286" class="st0" width="15.3" height="8.3"/>
	<text transform="matrix(1 0 0 1 -108.0078 292.2696)" class="st1 st2 st3">FS</text>
	<line class="st4" x1="-103.3" y1="294.3" x2="-103.3" y2="295.2"/>
	<line class="st4" x1="-105.5" y1="294.3" x2="-105.5" y2="295.2"/>
	<line class="st4" x1="-101.2" y1="294.3" x2="-101.2" y2="295.2"/>
	<line class="st4" x1="-99" y1="294.3" x2="-99" y2="295.2"/>
	<line class="st4" x1="-107.7" y1="294.3" x2="-107.7" y2="295.2"/>
	<line class="st4" x1="-103.3" y1="285.1" x2="-103.3" y2="286"/>
	<line class="st4" x1="-105.5" y1="285.1" x2="-105.5" y2="286"/>
	<line class="st4" x1="-101.2" y1="285.1" x2="-101.2" y2="286"/>
	<line class="st4" x1="-99" y1="285.1" x2="-99" y2="286"/>
	<line class="st4" x1="-107.7" y1="285.1" x2="-107.7" y2="286"/>
</g>
<g>
	<rect x="-111" y="299" class="st0" width="15.3" height="8.3"/>
	<text transform="matrix(1 0 0 1 -108.0078 305.2246)" class="st1 st2 st3">GS</text>
	<line class="st4" x1="-103.3" y1="307.3" x2="-103.3" y2="308.2"/>
	<line class="st4" x1="-105.5" y1="307.3" x2="-105.5" y2="308.2"/>
	<line class="st4" x1="-101.2" y1="307.3" x2="-101.2" y2="308.2"/>
	<line class="st4" x1="-99" y1="307.3" x2="-99" y2="308.2"/>
	<line class="st4" x1="-107.7" y1="307.3" x2="-107.7" y2="308.2"/>
	<line class="st4" x1="-103.3" y1="298.1" x2="-103.3" y2="299"/>
	<line class="st4" x1="-105.5" y1="298.1" x2="-105.5" y2="299"/>
	<line class="st4" x1="-101.2" y1="298.1" x2="-101.2" y2="299"/>
	<line class="st4" x1="-99" y1="298.1" x2="-99" y2="299"/>
	<line class="st4" x1="-107.7" y1="298.1" x2="-107.7" y2="299"/>
</g>
<g>
	<rect x="-16.9" y="241.7" class="st0" width="103.8" height="28"/>
	<line class="st5" x1="-16.9" y1="255.7" x2="87" y2="255.7"/>
	<line class="st5" x1="35" y1="241.9" x2="35" y2="255.9"/>
	<text transform="matrix(1 0 0 1 26.17 265.1914)" class="st1 st2 st3">Base</text>
	<text transform="matrix(1 0 0 1 49.7496 250.9688)" class="st1 st2 st3">Limit</text>
</g>
<g>
	<rect x="-16.9" y="305.9" class="st0" width="103.8" height="28"/>
	<line class="st5" x1="-16.9" y1="319.9" x2="87" y2="319.9"/>
	<line class="st5" x1="35" y1="306" x2="35" y2="320"/>
	<text transform="matrix(1 0 0 1 26.17 329.3223)" class="st1 st2 st3">Base</text>
	<text transform="matrix(1 0 0 1 49.7496 315.0987)" class="st1 st2 st3">Limit</text>
</g>
<line class="st4" x1="-16.9" y1="229.9" x2="-16.9" y2="385.5"/>
<line class="st4" x1="87" y1="229.9" x2="87" y2="385.5"/>
<line class="st4" x1="-16.9" y1="229.9" x2="87" y2="229.9"/>
<line class="st4" x1="-16.9" y1="385.5" x2="87" y2="385.5"/>
<line class="st4" x1="-56.3" y1="269.7" x2="-16.9" y2="269.7"/>
<polygon class="st6" points="-16.9,269.7 -21.3,268 -21.3,271.4 "/>
<line class="st4" x1="-56.3" y1="333.9" x2="-16.9" y2="333.9"/>
<polygon class="st6" points="-16.9,333.9 -21.3,332.2 -21.3,335.5 "/>
<line class="st4" x1="-95.7" y1="303.1" x2="-56.3" y2="303.1"/>
<line class="st4" x1="-56.3" y1="303.1" x2="-56.3" y2="333.9"/>
<line class="st4" x1="-95.7" y1="290.2" x2="-56.3" y2="290.2"/>
<line class="st4" x1="-56.3" y1="290.2" x2="-56.3" y2="269.7"/>
<rect x="-111" y="128.5" class="st4" width="103.8" height="17.5"/>
<text transform="matrix(1 0 0 1 -98.7583 139.2012)" class="st1 st2 st3">Effective Address</text>
<text transform="matrix(1 0 0 1 -142.9926 236.3008)" class="st1 st2 st3">Segment Registers</text>
<text transform="matrix(1 0 0 1 -6.9594 223.3448)" class="st1 st2 st3">Descriptors Table</text>
<rect x="196.9" y="119.8" class="st7" width="103.8" height="317.5"/>
<polyline class="st0" points="300.7,415.2 196.9,415.2 196.9,355.6 300.7,355.6 "/>
<rect x="196.9" y="190.6" class="st0" width="103.8" height="112.6"/>
<line class="st4" x1="111.9" y1="415.2" x2="196.9" y2="415.2"/>
<polygon class="st6" points="196.9,415.2 192.5,413.5 192.5,416.8 "/>
<line class="st4" x1="157.5" y1="355.6" x2="196.9" y2="355.6"/>
<polygon class="st6" points="196.9,355.6 192.5,353.9 192.5,357.2 "/>
<polygon class="st6" points="196.9,303.1 192.5,301.4 192.5,304.8 "/>
<line class="st4" x1="170.1" y1="190.4" x2="196.9" y2="190.4"/>
<polygon class="st6" points="196.9,190.4 192.5,188.7 192.5,192.1 "/>
<line class="st4" x1="87" y1="327.1" x2="111.9" y2="327.1"/>
<line class="st4" x1="111.9" y1="327.1" x2="111.9" y2="415.2"/>
<polygon class="st6" points="139.2,355.6 134.9,353.9 134.9,357.2 "/>
<line class="st4" x1="111.9" y1="355.6" x2="138.6" y2="355.6"/>
<circle class="st4" cx="148.6" cy="355.8" r="8.9"/>
<rect x="148.1" y="353.1" class="st6" width="1" height="5.4"/>
<rect x="145.9" y="355.3" class="st6" width="5.4" height="1"/>
<line class="st4" x1="87" y1="313" x2="148.6" y2="313"/>
<line class="st4" x1="148.6" y1="313" x2="148.6" y2="346.9"/>
<polygon class="st6" points="148.6,346.9 150.3,342.6 146.9,342.6 "/>
<line class="st4" x1="111.9" y1="303.1" x2="196.9" y2="303.1"/>
<line class="st4" x1="111.9" y1="262.3" x2="111.9" y2="276.3"/>
<line class="st4" x1="87" y1="262.3" x2="111.9" y2="262.3"/>
<polygon class="st6" points="139.6,233.3 135.2,231.6 135.2,235 "/>
<line class="st4" x1="112.3" y1="233.3" x2="139" y2="233.3"/>
<circle class="st4" cx="148.6" cy="232.7" r="8.9"/>
<rect x="148.1" y="230" class="st6" width="1" height="5.4"/>
<rect x="145.9" y="232.2" class="st6" width="5.4" height="1"/>
<line class="st4" x1="87" y1="248.2" x2="112.3" y2="248.2"/>
<line class="st4" x1="148.6" y1="276.3" x2="148.6" y2="242.4"/>
<polygon class="st6" points="148.6,242.4 146.9,246.7 150.3,246.7 "/>
<line class="st4" x1="112.3" y1="233.3" x2="112.3" y2="248.2"/>
<line class="st4" x1="111.9" y1="276.3" x2="148.6" y2="276.3"/>
<line class="st4" x1="111.9" y1="276.3" x2="111.9" y2="303.1"/>
<line class="st4" x1="157.5" y1="232.7" x2="170.1" y2="232.7"/>
<line class="st4" x1="170.1" y1="190.6" x2="170.1" y2="232.7"/>
<line class="st4" x1="124.6" y1="276.3" x2="124.6" y2="210"/>
<polygon class="st6" points="124.6,210 123,214.3 126.3,214.3 "/>
<circle class="st4" cx="124.6" cy="200.4" r="8.9"/>
<rect x="124.1" y="197.6" class="st6" width="1" height="5.4"/>
<rect x="121.9" y="199.9" class="st6" width="5.4" height="1"/>
<polygon class="st6" points="114.9,200.9 110.6,199.3 110.6,202.6 "/>
<line class="st4" x1="87.7" y1="200.9" x2="114.3" y2="200.9"/>
<line class="st4" x1="-7.2" y1="136.9" x2="87.7" y2="136.9"/>
<line class="st4" x1="87.7" y1="200.9" x2="87.7" y2="136.9"/>
<line class="st4" x1="133.5" y1="200.4" x2="149.1" y2="200.4"/>
<line class="st4" x1="149.1" y1="200.4" x2="149.1" y2="215"/>
<line class="st4" x1="149.1" y1="215" x2="196.9" y2="215"/>
<polygon class="st6" points="196.9,215 192.5,213.3 192.5,216.7 "/>
<rect x="196.9" y="206.2" class="st4" width="103.8" height="17.5"/>
<text transform="matrix(1 0 0 1 213.8311 216.9346)" class="st1 st2 st3">Virtual Address</text>
<text transform="matrix(1 0 0 1 213.8311 100.334)"><tspan x="0" y="0" class="st1 st2 st3">Virtual Address</tspan><tspan x="23.3" y="9.3" class="st1 st2 st3">Space</tspan></text>
</svg>
