<?xml version="1.0" encoding="utf-8"?>
<!-- Generator: Adobe Illustrator 19.1.0, SVG Export Plug-In . SVG Version: 6.00 Build 0)  -->
<svg version="1.1" id="Layer_1" xmlns="http://www.w3.org/2000/svg" xmlns:xlink="http://www.w3.org/1999/xlink" x="0px" y="0px"
	 viewBox="-154 140 482.6 171.3" style="enable-background:new -154 140 482.6 171.3;" xml:space="preserve">
<style type="text/css">
	.st0{fill:#231F20;}
	.st1{font-family:'CourierNewPSMT';}
	.st2{font-size:10.9638px;}
	.st3{fill:none;stroke:#231F20;stroke-width:0.25;stroke-miterlimit:10;}
	.st4{font-size:8.2228px;}
</style>
<text transform="matrix(1 0 0 1 -140.3511 178.3921)"><tspan x="0" y="0" class="st0 st1 st2">Instruction</tspan><tspan x="6.6" y="13.2" class="st0 st1 st2">Prefixies</tspan></text>
<text transform="matrix(1 0 0 1 -42.5879 184.7876)" class="st0 st1 st2">Opcode</text>
<text transform="matrix(1 0 0 1 28.311 184.7876)" class="st0 st1 st2">ModRM</text>
<text transform="matrix(1 0 0 1 101.5879 184.7876)" class="st0 st1 st2">SIB</text>
<text transform="matrix(1 0 0 1 156.0371 184.7876)" class="st0 st1 st2">Displacement</text>
<text transform="matrix(1 0 0 1 256.3564 184.7876)" class="st0 st1 st2">Immediate</text>
<text transform="matrix(1 0 0 1 -33.6333 285.2886)" class="st0 st1 st2">Mod</text>
<text transform="matrix(1 0 0 1 -0.377 279.8071)"><tspan x="0" y="0" class="st0 st1 st2">Reg/</tspan><tspan x="-6.6" y="13.2" class="st0 st1 st2">Opcode</tspan></text>
<text transform="matrix(1 0 0 1 39.4595 284.3755)" class="st0 st1 st2">R/M</text>
<text transform="matrix(1 0 0 1 109.2627 284.3755)" class="st0 st1 st2">Base</text>
<text transform="matrix(1 0 0 1 141.6045 284.3755)" class="st0 st1 st2">Scale</text>
<text transform="matrix(1 0 0 1 180.8906 284.3755)" class="st0 st1 st2">Index</text>
<line class="st3" x1="-148" y1="163.6" x2="-148" y2="199.4"/>
<line class="st3" x1="-148" y1="163.6" x2="323.4" y2="163.6"/>
<line class="st3" x1="-148" y1="199.4" x2="323.4" y2="199.4"/>
<line class="st3" x1="323.4" y1="163.6" x2="323.4" y2="199.4"/>
<line class="st3" x1="-57.6" y1="163.6" x2="-57.6" y2="199.4"/>
<line class="st3" x1="9.1" y1="163.6" x2="9.1" y2="199.4"/>
<line class="st3" x1="80.4" y1="163.6" x2="80.4" y2="199.4"/>
<line class="st3" x1="140.2" y1="163.6" x2="140.2" y2="199.4"/>
<line class="st3" x1="248" y1="163.6" x2="248" y2="199.4"/>
<line class="st3" x1="-37.9" y1="265" x2="62.6" y2="265"/>
<line class="st3" x1="-37.9" y1="300.8" x2="62.6" y2="300.8"/>
<line class="st3" x1="-37.9" y1="300.8" x2="-37.9" y2="265"/>
<line class="st3" x1="62.6" y1="265" x2="62.6" y2="300.8"/>
<line class="st3" x1="-10.1" y1="265" x2="-10.1" y2="300.8"/>
<line class="st3" x1="36.1" y1="265" x2="36.1" y2="300.8"/>
<line class="st3" x1="105.5" y1="265" x2="217.2" y2="265"/>
<line class="st3" x1="105.5" y1="300.8" x2="105.5" y2="265"/>
<line class="st3" x1="105.5" y1="300.8" x2="217.2" y2="300.8"/>
<line class="st3" x1="217.2" y1="265" x2="217.2" y2="300.8"/>
<line class="st3" x1="138.4" y1="265" x2="138.4" y2="300.8"/>
<line class="st3" x1="177.7" y1="265" x2="177.7" y2="300.8"/>
<line class="st3" x1="44.8" y1="199.4" x2="44.8" y2="244.2"/>
<line class="st3" x1="44.8" y1="244.2" x2="12.3" y2="244.2"/>
<line class="st3" x1="12.3" y1="244.2" x2="12.3" y2="265"/>
<line class="st3" x1="111.5" y1="199.4" x2="111.5" y2="244.2"/>
<line class="st3" x1="111.5" y1="244.2" x2="161.4" y2="244.2"/>
<line class="st3" x1="161.4" y1="244.2" x2="161.4" y2="264.7"/>
<text transform="matrix(1 0 0 1 57.4043 262.2622)" class="st0 st1 st4">0</text>
<text transform="matrix(1 0 0 1 -37.6524 262.2622)" class="st0 st1 st4">7</text>
<text transform="matrix(1 0 0 1 38.1807 262.2622)" class="st0 st1 st4">2</text>
<text transform="matrix(1 0 0 1 29.0439 262.2622)" class="st0 st1 st4">3</text>
<text transform="matrix(1 0 0 1 -7.502 262.2622)" class="st0 st1 st4">5</text>
<text transform="matrix(1 0 0 1 -16.6387 262.2622)" class="st0 st1 st4">6</text>
<text transform="matrix(1 0 0 1 211.8125 262.2622)" class="st0 st1 st4">0</text>
<text transform="matrix(1 0 0 1 105.792 262.2622)" class="st0 st1 st4">7</text>
<text transform="matrix(1 0 0 1 179.7969 262.2622)" class="st0 st1 st4">2</text>
<text transform="matrix(1 0 0 1 170.6601 262.2622)" class="st0 st1 st4">3</text>
<text transform="matrix(1 0 0 1 140.5107 262.2622)" class="st0 st1 st4">5</text>
<text transform="matrix(1 0 0 1 131.373 262.2622)" class="st0 st1 st4">6</text>
<text transform="matrix(1 0 0 1 -149.855 214.0249)"><tspan x="0" y="0" class="st0 st1 st4">Up to four prefixes </tspan><tspan x="14.8" y="9.9" class="st0 st1 st4">of 1 byte each</tspan></text>
<text transform="matrix(1 0 0 1 -55.8384 153.7241)" class="st0 st1 st4">1,2 or 3 byte</text>
<text transform="matrix(1 0 0 1 160.9717 153.7241)" class="st0 st1 st4">1,2 or 4 bytes</text>
<text transform="matrix(1 0 0 1 251.4228 153.7241)" class="st0 st1 st4">1,2 or 4 bytes</text>
</svg>
