<?xml version="1.0" encoding="utf-8"?>
<!-- Generator: Adobe Illustrator 19.1.0, SVG Export Plug-In . SVG Version: 6.00 Build 0)  -->
<svg version="1.1" id="Layer_1" xmlns="http://www.w3.org/2000/svg" xmlns:xlink="http://www.w3.org/1999/xlink" x="0px" y="0px"
	 viewBox="-154 88 482.6 370" style="enable-background:new -154 88 482.6 370;" xml:space="preserve">
<style type="text/css">
	.st0{fill:none;stroke:#231F20;stroke-width:0.25;stroke-miterlimit:10;}
	.st1{fill:#231F20;}
	.st2{font-family:'CourierNewPSMT';}
	.st3{font-size:7.7614px;}
	.st4{fill:#E6E7E8;stroke:#231F20;stroke-width:0.25;stroke-miterlimit:10;}
	.st5{fill:#FFFFFF;stroke:#231F20;stroke-width:0.25;stroke-miterlimit:10;}
	.st6{fill:#231F20;stroke:#231F20;stroke-width:0.25;stroke-miterlimit:10;}
	.st7{fill:none;stroke:#BBBDBF;stroke-width:0.25;stroke-miterlimit:10;}
</style>
<rect x="-86.5" y="120.4" class="st0" width="203.1" height="17.5"/>
<text transform="matrix(1 0 0 1 -19.8501 111.6782)" class="st1 st2 st3">Virtual Address</text>
<rect x="197.1" y="120.1" class="st4" width="103.7" height="317"/>
<rect x="197.1" y="236.1" class="st5" width="103.7" height="112.4"/>
<polygon class="st6" points="197,348.4 192.7,346.7 192.7,350.1 "/>
<polygon class="st6" points="197,299.9 192.7,298.2 192.7,301.6 "/>
<rect x="197.1" y="290.5" class="st0" width="103.7" height="17.5"/>
<text transform="matrix(1 0 0 1 211.6357 301.187)" class="st1 st2 st3">Physical Address</text>
<text transform="matrix(1 0 0 1 211.6357 100.6831)"><tspan x="0" y="0" class="st1 st2 st3">Physical Address</tspan><tspan x="25.6" y="9.3" class="st1 st2 st3">Space</tspan></text>
<rect x="-120.5" y="419.2" class="st0" width="125" height="17.5"/>
<text transform="matrix(1 0 0 1 -112.1182 429.8975)" class="st1 st2 st3">Page Table Base Address</text>
<line class="st7" x1="-47.6" y1="120.4" x2="-47.6" y2="137.9"/>
<line class="st7" x1="-8.8" y1="120.4" x2="-8.8" y2="137.9"/>
<line class="st7" x1="30" y1="120.4" x2="30" y2="137.9"/>
<rect x="-99.4" y="194.9" class="st0" width="58.8" height="122.8"/>
<line class="st0" x1="-99.4" y1="253.4" x2="-40.6" y2="253.4"/>
<line class="st0" x1="-99.4" y1="269.2" x2="-40.6" y2="269.2"/>
<line class="st0" x1="104.6" y1="137.9" x2="104.6" y2="173.5"/>
<line class="st0" x1="104.6" y1="173.5" x2="172.2" y2="173.5"/>
<line class="st0" x1="172.2" y1="173.5" x2="172.2" y2="299.9"/>
<line class="st0" x1="172.2" y1="299.9" x2="197" y2="299.9"/>
<line class="st0" x1="152.3" y1="254.9" x2="162.4" y2="254.9"/>
<line class="st0" x1="162.4" y1="254.9" x2="162.4" y2="348.4"/>
<line class="st0" x1="162.4" y1="348.4" x2="197.1" y2="348.4"/>
<rect x="-3" y="194.9" class="st0" width="58.8" height="122.8"/>
<line class="st0" x1="-3" y1="266.4" x2="55.8" y2="266.4"/>
<line class="st0" x1="-3" y1="282.2" x2="55.8" y2="282.2"/>
<rect x="93.4" y="194.9" class="st0" width="58.8" height="122.8"/>
<line class="st0" x1="93.4" y1="247" x2="152.2" y2="247"/>
<line class="st0" x1="93.4" y1="262.8" x2="152.2" y2="262.8"/>
<polygon class="st6" points="93.4,317.8 89,316.1 89,319.4 "/>
<line class="st0" x1="68.5" y1="317.8" x2="93.4" y2="317.8"/>
<line class="st0" x1="68.5" y1="317.8" x2="68.5" y2="274.5"/>
<line class="st0" x1="68.5" y1="274.5" x2="55.8" y2="274.5"/>
<polygon class="st6" points="-3,317.8 -7.4,316.1 -7.4,319.4 "/>
<line class="st0" x1="-27.9" y1="317.8" x2="-3" y2="317.8"/>
<line class="st0" x1="-27.9" y1="317.8" x2="-27.9" y2="262.8"/>
<line class="st0" x1="-27.9" y1="262.8" x2="-40.6" y2="262.8"/>
<line class="st0" x1="-28.6" y1="137.9" x2="-28.6" y2="173.5"/>
<line class="st0" x1="-28.6" y1="173.5" x2="-15.4" y2="173.5"/>
<line class="st0" x1="-15.4" y1="173.5" x2="-15.4" y2="273.8"/>
<line class="st0" x1="-15.4" y1="273.8" x2="-3" y2="273.8"/>
<polygon class="st6" points="-3,273.8 -7.4,272.1 -7.4,275.4 "/>
<line class="st0" x1="80.9" y1="173.5" x2="80.9" y2="254.7"/>
<line class="st0" x1="80.9" y1="254.7" x2="93.4" y2="254.7"/>
<polygon class="st6" points="93.4,254.7 89,253.3 89,256 "/>
<line class="st0" x1="10.2" y1="137.9" x2="10.2" y2="173.5"/>
<line class="st0" x1="10.2" y1="173.5" x2="80.9" y2="173.5"/>
<line class="st0" x1="-67.4" y1="137.9" x2="-67.4" y2="173.5"/>
<line class="st0" x1="-112.5" y1="173.5" x2="-67.2" y2="173.5"/>
<line class="st0" x1="-112.5" y1="173.5" x2="-112.5" y2="260.9"/>
<line class="st0" x1="-112.5" y1="260.9" x2="-100" y2="260.9"/>
<polygon class="st6" points="-100,260.8 -104.4,259.2 -104.4,262.5 "/>
<polygon class="st6" points="-99.4,317.8 -103.7,316.1 -103.7,319.4 "/>
<line class="st0" x1="-124.2" y1="317.8" x2="-99.4" y2="317.8"/>
<line class="st0" x1="-124.2" y1="317.8" x2="-124.2" y2="397"/>
<line class="st0" x1="-124.2" y1="397" x2="-58.6" y2="397"/>
<line class="st0" x1="-58.6" y1="397" x2="-58.6" y2="419.2"/>
</svg>
