<?xml version="1.0" encoding="utf-8"?>
<!-- Generator: Adobe Illustrator 19.1.0, SVG Export Plug-In . SVG Version: 6.00 Build 0)  -->
<svg version="1.1" id="Layer_1" xmlns="http://www.w3.org/2000/svg" xmlns:xlink="http://www.w3.org/1999/xlink" x="0px" y="0px"
	 viewBox="0 0 793.5 501.1" style="enable-background:new 0 0 793.5 501.1;" xml:space="preserve">
<style type="text/css">
	.st0{fill:#FCEC98;stroke:#000000;stroke-width:0.25;stroke-miterlimit:10;}
	.st1{fill:#FFFFFF;stroke:#000000;stroke-width:0.25;stroke-miterlimit:10;}
	.st2{fill:#00AEEF;stroke:#000000;stroke-width:0.25;stroke-miterlimit:10;}
	.st3{fill:#D34A5B;stroke:#000000;stroke-width:0.25;stroke-miterlimit:10;}
	.st4{fill:none;stroke:#000000;stroke-width:0.25;stroke-miterlimit:10;}
	.st5{fill:#B3DEF2;stroke:#000000;stroke-width:0.25;stroke-miterlimit:10;}
	.st6{font-family:'CourierNewPSMT';}
	.st7{font-size:14px;}
	.st8{font-size:7px;}
	.st9{fill:#FFFFFF;}
	.st10{font-size:12px;}
	.st11{fill:#F1F2F2;stroke:#000000;stroke-width:0.25;stroke-miterlimit:10;}
</style>
<rect x="111.9" y="12.7" class="st0" width="267.8" height="318"/>
<g>
	<rect x="240.2" y="264" class="st1" width="50.1" height="23.8"/>
</g>
<g>
	<rect x="180.2" y="224" class="st1" width="50.1" height="23.8"/>
	<rect x="240.2" y="224" class="st1" width="50.1" height="23.8"/>
	<rect x="300.2" y="224" class="st1" width="50.1" height="23.8"/>
</g>
<g>
	<rect x="180.2" y="184" class="st1" width="50.1" height="23.8"/>
	<rect x="240.2" y="184" class="st1" width="50.1" height="23.8"/>
	<rect x="300.2" y="184" class="st1" width="50.1" height="23.8"/>
</g>
<g>
	<rect x="240.2" y="144" class="st1" width="50.1" height="23.8"/>
</g>
<g>
	<rect x="180.2" y="104" class="st1" width="50.1" height="23.8"/>
	<rect x="240.2" y="104" class="st1" width="50.1" height="23.8"/>
	<rect x="300.2" y="104" class="st1" width="50.1" height="23.8"/>
</g>
<g>
	<rect x="240.2" y="64" class="st1" width="50.1" height="23.8"/>
</g>
<rect x="134" y="184" class="st2" width="26.2" height="63.8"/>
<g>
	<rect x="182.8" y="267" class="st3" width="44.7" height="18.2"/>
</g>
<g>
	<g>
		<rect x="306" y="267" class="st0" width="38.3" height="18.2"/>
	</g>
	<line class="st4" x1="325.2" y1="267" x2="325.2" y2="264"/>
	<line class="st4" x1="338.2" y1="267" x2="338.2" y2="264"/>
	<line class="st4" x1="318.2" y1="267" x2="318.2" y2="264"/>
	<line class="st4" x1="332.2" y1="267" x2="332.2" y2="264"/>
	<line class="st4" x1="312.2" y1="267" x2="312.2" y2="264"/>
	<line class="st4" x1="325.2" y1="288.2" x2="325.2" y2="285.1"/>
	<line class="st4" x1="338.2" y1="288.2" x2="338.2" y2="285.1"/>
	<line class="st4" x1="318.2" y1="288.2" x2="318.2" y2="285.1"/>
	<line class="st4" x1="332.2" y1="288.2" x2="332.2" y2="285.1"/>
	<line class="st4" x1="312.2" y1="288.2" x2="312.2" y2="285.1"/>
</g>
<g>
	<g>
		<rect x="306" y="27" class="st0" width="38.3" height="18.2"/>
	</g>
	<line class="st4" x1="325.2" y1="27" x2="325.2" y2="24"/>
	<line class="st4" x1="338.2" y1="27" x2="338.2" y2="24"/>
	<line class="st4" x1="318.2" y1="27" x2="318.2" y2="24"/>
	<line class="st4" x1="332.2" y1="27" x2="332.2" y2="24"/>
	<line class="st4" x1="312.2" y1="27" x2="312.2" y2="24"/>
	<line class="st4" x1="325.2" y1="48.2" x2="325.2" y2="45.1"/>
	<line class="st4" x1="338.2" y1="48.2" x2="338.2" y2="45.1"/>
	<line class="st4" x1="318.2" y1="48.2" x2="318.2" y2="45.1"/>
	<line class="st4" x1="332.2" y1="48.2" x2="332.2" y2="45.1"/>
	<line class="st4" x1="312.2" y1="48.2" x2="312.2" y2="45.1"/>
</g>
<g>
	<g>
		<rect x="246" y="27" class="st0" width="38.3" height="18.2"/>
	</g>
	<line class="st4" x1="265.2" y1="27" x2="265.2" y2="24"/>
	<line class="st4" x1="278.2" y1="27" x2="278.2" y2="24"/>
	<line class="st4" x1="258.2" y1="27" x2="258.2" y2="24"/>
	<line class="st4" x1="272.2" y1="27" x2="272.2" y2="24"/>
	<line class="st4" x1="252.2" y1="27" x2="252.2" y2="24"/>
	<line class="st4" x1="265.2" y1="48.2" x2="265.2" y2="45.1"/>
	<line class="st4" x1="278.2" y1="48.2" x2="278.2" y2="45.1"/>
	<line class="st4" x1="258.2" y1="48.2" x2="258.2" y2="45.1"/>
	<line class="st4" x1="272.2" y1="48.2" x2="272.2" y2="45.1"/>
	<line class="st4" x1="252.2" y1="48.2" x2="252.2" y2="45.1"/>
</g>
<g>
	<g>
		<rect x="186" y="27" class="st0" width="38.3" height="18.2"/>
	</g>
	<line class="st4" x1="205.2" y1="27" x2="205.2" y2="24"/>
	<line class="st4" x1="218.2" y1="27" x2="218.2" y2="24"/>
	<line class="st4" x1="198.2" y1="27" x2="198.2" y2="24"/>
	<line class="st4" x1="212.2" y1="27" x2="212.2" y2="24"/>
	<line class="st4" x1="192.2" y1="27" x2="192.2" y2="24"/>
	<line class="st4" x1="205.2" y1="48.2" x2="205.2" y2="45.1"/>
	<line class="st4" x1="218.2" y1="48.2" x2="218.2" y2="45.1"/>
	<line class="st4" x1="198.2" y1="48.2" x2="198.2" y2="45.1"/>
	<line class="st4" x1="212.2" y1="48.2" x2="212.2" y2="45.1"/>
	<line class="st4" x1="192.2" y1="48.2" x2="192.2" y2="45.1"/>
</g>
<g>
	<g>
		<rect x="126" y="27" class="st0" width="38.3" height="18.2"/>
	</g>
	<line class="st4" x1="145.2" y1="27" x2="145.2" y2="24"/>
	<line class="st4" x1="158.2" y1="27" x2="158.2" y2="24"/>
	<line class="st4" x1="138.2" y1="27" x2="138.2" y2="24"/>
	<line class="st4" x1="152.2" y1="27" x2="152.2" y2="24"/>
	<line class="st4" x1="132.2" y1="27" x2="132.2" y2="24"/>
	<line class="st4" x1="145.2" y1="48.2" x2="145.2" y2="45.1"/>
	<line class="st4" x1="158.2" y1="48.2" x2="158.2" y2="45.1"/>
	<line class="st4" x1="138.2" y1="48.2" x2="138.2" y2="45.1"/>
	<line class="st4" x1="152.2" y1="48.2" x2="152.2" y2="45.1"/>
	<line class="st4" x1="132.2" y1="48.2" x2="132.2" y2="45.1"/>
</g>
<rect x="61" y="45.1" class="st5" width="34.7" height="119.8"/>
<rect x="61" y="183.8" class="st5" width="34.7" height="119.8"/>
<rect x="11.3" y="58.9" class="st5" width="34.7" height="229.6"/>
<rect x="28.7" y="355.4" class="st5" width="734" height="34.7"/>
<rect x="347.1" y="405.4" class="st0" width="91.9" height="34.7"/>
<text transform="matrix(1 0 0 1 380.7314 426.0782)" class="st6 st7">MMU</text>
<text transform="matrix(1 0 0 1 321.1328 278.0782)" class="st6 st8">IP</text>
<text transform="matrix(1 0 0 1 254.998 273.7447)"><tspan x="0" y="0" class="st6 st8">Fetch</tspan><tspan x="-12.6" y="8.4" class="st6 st8">Instruction</tspan></text>
<text transform="matrix(1 0 0 1 253.8979 233.7447)"><tspan x="0" y="0" class="st6 st8">Decode</tspan><tspan x="-12.6" y="8.4" class="st6 st8">Instruction </tspan></text>
<text transform="matrix(1 0 0 1 313.8979 233.7447)"><tspan x="0" y="0" class="st6 st8">Decode</tspan><tspan x="-12.6" y="8.4" class="st6 st8">Instruction </tspan></text>
<text transform="matrix(1 0 0 1 193.8979 233.7447)"><tspan x="0" y="0" class="st6 st8">Decode</tspan><tspan x="-12.6" y="8.4" class="st6 st8">Instruction </tspan></text>
<text transform="matrix(1 0 0 1 248.6973 157.7447)" class="st6 st8">Sheduler</text>
<text transform="matrix(1 0 0 1 190.7979 113.7447)"><tspan x="0" y="0" class="st6 st8">Execute</tspan><tspan x="-8.4" y="8.4" class="st6 st8">Instruction</tspan></text>
<text transform="matrix(1 0 0 1 250.7979 113.7447)"><tspan x="0" y="0" class="st6 st8">Execute</tspan><tspan x="-8.4" y="8.4" class="st6 st8">Instruction</tspan></text>
<text transform="matrix(1 0 0 1 310.7979 113.7447)"><tspan x="0" y="0" class="st6 st8">Execute</tspan><tspan x="-8.4" y="8.4" class="st6 st8">Instruction</tspan></text>
<text transform="matrix(1 0 0 1 257.0986 73.7447)"><tspan x="0" y="0" class="st6 st8">Save</tspan><tspan x="-4.2" y="8.4" class="st6 st8">Result</tspan></text>
<text transform="matrix(1 0 0 1 194.998 193.7447)"><tspan x="0" y="0" class="st6 st8">Fetch</tspan><tspan x="2.1" y="8.4" class="st6 st8">Data</tspan></text>
<text transform="matrix(1 0 0 1 254.998 193.7447)"><tspan x="0" y="0" class="st6 st8">Fetch</tspan><tspan x="2.1" y="8.4" class="st6 st8">Data</tspan></text>
<text transform="matrix(1 0 0 1 314.998 193.7447)"><tspan x="0" y="0" class="st6 st8">Fetch</tspan><tspan x="2.1" y="8.4" class="st6 st8">Data</tspan></text>
<text transform="matrix(1 0 0 1 134.8979 207.7447)"><tspan x="0" y="0" class="st9 st6 st8">Micro-</tspan><tspan x="4.2" y="8.4" class="st9 st6 st8">code</tspan><tspan x="6.3" y="16.8" class="st9 st6 st8">ROM</tspan></text>
<text transform="matrix(1 0 0 1 74.2993 100.7447)"><tspan x="0" y="0" class="st6 st8">L1</tspan><tspan x="-6.3" y="8.4" class="st6 st8">Cache</tspan><tspan x="-8.4" y="16.8" class="st6 st8">(Data)</tspan></text>
<text transform="matrix(1 0 0 1 74.2993 240.7447)"><tspan x="0" y="0" class="st6 st8">L1</tspan><tspan x="-6.3" y="8.4" class="st6 st8">Cache</tspan><tspan x="-12.6" y="16.8" class="st6 st8">(Instr.)</tspan></text>
<text transform="matrix(1 0 0 1 24.2993 170.7447)"><tspan x="0" y="0" class="st6 st8">L2</tspan><tspan x="-6.3" y="8.4" class="st6 st8">Cache</tspan></text>
<text transform="matrix(1 0 0 1 248.6973 37.7447)" class="st6 st8">Register</text>
<text transform="matrix(1 0 0 1 308.6973 37.7447)" class="st6 st8">Register</text>
<text transform="matrix(1 0 0 1 188.6973 37.7447)" class="st6 st8">Register</text>
<text transform="matrix(1 0 0 1 128.6973 37.7447)" class="st6 st8">Register</text>
<text transform="matrix(1 0 0 1 24.2993 170.7447)"><tspan x="0" y="0" class="st6 st8">L2</tspan><tspan x="-6.3" y="8.4" class="st6 st8">Cache</tspan></text>
<text transform="matrix(1 0 0 1 388.4393 369.7307)"><tspan x="0" y="0" class="st6 st10">L3</tspan><tspan x="-10.8" y="14.4" class="st6 st10">Cache</tspan></text>
<text transform="matrix(1 0 0 1 186.5967 273.7447)"><tspan x="0" y="0" class="st9 st6 st8">Interrupt</tspan><tspan x="10.5" y="8.4" class="st9 st6 st8">Unit</tspan></text>
<rect x="411.9" y="12.7" class="st0" width="267.8" height="318"/>
<g>
	<rect x="540.2" y="264" class="st1" width="50.1" height="23.8"/>
</g>
<g>
	<rect x="480.2" y="224" class="st1" width="50.1" height="23.8"/>
	<rect x="540.2" y="224" class="st1" width="50.1" height="23.8"/>
	<rect x="600.2" y="224" class="st1" width="50.1" height="23.8"/>
</g>
<g>
	<rect x="480.2" y="184" class="st1" width="50.1" height="23.8"/>
	<rect x="540.2" y="184" class="st1" width="50.1" height="23.8"/>
	<rect x="600.2" y="184" class="st1" width="50.1" height="23.8"/>
</g>
<g>
	<rect x="540.2" y="144" class="st1" width="50.1" height="23.8"/>
</g>
<g>
	<rect x="480.2" y="104" class="st1" width="50.1" height="23.8"/>
	<rect x="540.2" y="104" class="st1" width="50.1" height="23.8"/>
	<rect x="600.2" y="104" class="st1" width="50.1" height="23.8"/>
</g>
<g>
	<rect x="540.2" y="64" class="st1" width="50.1" height="23.8"/>
</g>
<rect x="434" y="184" class="st2" width="26.2" height="63.8"/>
<g>
	<rect x="482.8" y="267" class="st3" width="44.7" height="18.2"/>
</g>
<g>
	<g>
		<rect x="606" y="267" class="st0" width="38.3" height="18.2"/>
	</g>
	<line class="st4" x1="625.2" y1="267" x2="625.2" y2="264"/>
	<line class="st4" x1="638.2" y1="267" x2="638.2" y2="264"/>
	<line class="st4" x1="618.2" y1="267" x2="618.2" y2="264"/>
	<line class="st4" x1="632.2" y1="267" x2="632.2" y2="264"/>
	<line class="st4" x1="612.2" y1="267" x2="612.2" y2="264"/>
	<line class="st4" x1="625.2" y1="288.2" x2="625.2" y2="285.1"/>
	<line class="st4" x1="638.2" y1="288.2" x2="638.2" y2="285.1"/>
	<line class="st4" x1="618.2" y1="288.2" x2="618.2" y2="285.1"/>
	<line class="st4" x1="632.2" y1="288.2" x2="632.2" y2="285.1"/>
	<line class="st4" x1="612.2" y1="288.2" x2="612.2" y2="285.1"/>
</g>
<g>
	<g>
		<rect x="606" y="27" class="st0" width="38.3" height="18.2"/>
	</g>
	<line class="st4" x1="625.2" y1="27" x2="625.2" y2="24"/>
	<line class="st4" x1="638.2" y1="27" x2="638.2" y2="24"/>
	<line class="st4" x1="618.2" y1="27" x2="618.2" y2="24"/>
	<line class="st4" x1="632.2" y1="27" x2="632.2" y2="24"/>
	<line class="st4" x1="612.2" y1="27" x2="612.2" y2="24"/>
	<line class="st4" x1="625.2" y1="48.2" x2="625.2" y2="45.1"/>
	<line class="st4" x1="638.2" y1="48.2" x2="638.2" y2="45.1"/>
	<line class="st4" x1="618.2" y1="48.2" x2="618.2" y2="45.1"/>
	<line class="st4" x1="632.2" y1="48.2" x2="632.2" y2="45.1"/>
	<line class="st4" x1="612.2" y1="48.2" x2="612.2" y2="45.1"/>
</g>
<g>
	<g>
		<rect x="546" y="27" class="st0" width="38.3" height="18.2"/>
	</g>
	<line class="st4" x1="565.2" y1="27" x2="565.2" y2="24"/>
	<line class="st4" x1="578.2" y1="27" x2="578.2" y2="24"/>
	<line class="st4" x1="558.2" y1="27" x2="558.2" y2="24"/>
	<line class="st4" x1="572.2" y1="27" x2="572.2" y2="24"/>
	<line class="st4" x1="552.2" y1="27" x2="552.2" y2="24"/>
	<line class="st4" x1="565.2" y1="48.2" x2="565.2" y2="45.1"/>
	<line class="st4" x1="578.2" y1="48.2" x2="578.2" y2="45.1"/>
	<line class="st4" x1="558.2" y1="48.2" x2="558.2" y2="45.1"/>
	<line class="st4" x1="572.2" y1="48.2" x2="572.2" y2="45.1"/>
	<line class="st4" x1="552.2" y1="48.2" x2="552.2" y2="45.1"/>
</g>
<g>
	<g>
		<rect x="486" y="27" class="st0" width="38.3" height="18.2"/>
	</g>
	<line class="st4" x1="505.2" y1="27" x2="505.2" y2="24"/>
	<line class="st4" x1="518.2" y1="27" x2="518.2" y2="24"/>
	<line class="st4" x1="498.2" y1="27" x2="498.2" y2="24"/>
	<line class="st4" x1="512.2" y1="27" x2="512.2" y2="24"/>
	<line class="st4" x1="492.2" y1="27" x2="492.2" y2="24"/>
	<line class="st4" x1="505.2" y1="48.2" x2="505.2" y2="45.1"/>
	<line class="st4" x1="518.2" y1="48.2" x2="518.2" y2="45.1"/>
	<line class="st4" x1="498.2" y1="48.2" x2="498.2" y2="45.1"/>
	<line class="st4" x1="512.2" y1="48.2" x2="512.2" y2="45.1"/>
	<line class="st4" x1="492.2" y1="48.2" x2="492.2" y2="45.1"/>
</g>
<g>
	<g>
		<rect x="426" y="27" class="st0" width="38.3" height="18.2"/>
	</g>
	<line class="st4" x1="445.2" y1="27" x2="445.2" y2="24"/>
	<line class="st4" x1="458.2" y1="27" x2="458.2" y2="24"/>
	<line class="st4" x1="438.2" y1="27" x2="438.2" y2="24"/>
	<line class="st4" x1="452.2" y1="27" x2="452.2" y2="24"/>
	<line class="st4" x1="432.2" y1="27" x2="432.2" y2="24"/>
	<line class="st4" x1="445.2" y1="48.2" x2="445.2" y2="45.1"/>
	<line class="st4" x1="458.2" y1="48.2" x2="458.2" y2="45.1"/>
	<line class="st4" x1="438.2" y1="48.2" x2="438.2" y2="45.1"/>
	<line class="st4" x1="452.2" y1="48.2" x2="452.2" y2="45.1"/>
	<line class="st4" x1="432.2" y1="48.2" x2="432.2" y2="45.1"/>
</g>
<rect x="696" y="45.1" class="st5" width="34.7" height="119.8"/>
<rect x="696" y="183.8" class="st5" width="34.7" height="119.8"/>
<rect x="746.3" y="58.9" class="st5" width="34.7" height="229.6"/>
<text transform="matrix(1 0 0 1 621.1328 278.0782)" class="st6 st8">IP</text>
<text transform="matrix(1 0 0 1 554.998 273.7447)"><tspan x="0" y="0" class="st6 st8">Fetch</tspan><tspan x="-12.6" y="8.4" class="st6 st8">Instruction</tspan></text>
<text transform="matrix(1 0 0 1 553.8979 233.7447)"><tspan x="0" y="0" class="st6 st8">Decode</tspan><tspan x="-12.6" y="8.4" class="st6 st8">Instruction </tspan></text>
<text transform="matrix(1 0 0 1 613.8979 233.7447)"><tspan x="0" y="0" class="st6 st8">Decode</tspan><tspan x="-12.6" y="8.4" class="st6 st8">Instruction </tspan></text>
<text transform="matrix(1 0 0 1 493.8979 233.7447)"><tspan x="0" y="0" class="st6 st8">Decode</tspan><tspan x="-12.6" y="8.4" class="st6 st8">Instruction </tspan></text>
<text transform="matrix(1 0 0 1 548.6973 157.7447)" class="st6 st8">Sheduler</text>
<text transform="matrix(1 0 0 1 490.7979 113.7447)"><tspan x="0" y="0" class="st6 st8">Execute</tspan><tspan x="-8.4" y="8.4" class="st6 st8">Instruction</tspan></text>
<text transform="matrix(1 0 0 1 550.7979 113.7447)"><tspan x="0" y="0" class="st6 st8">Execute</tspan><tspan x="-8.4" y="8.4" class="st6 st8">Instruction</tspan></text>
<text transform="matrix(1 0 0 1 610.7979 113.7447)"><tspan x="0" y="0" class="st6 st8">Execute</tspan><tspan x="-8.4" y="8.4" class="st6 st8">Instruction</tspan></text>
<text transform="matrix(1 0 0 1 557.0986 73.7447)"><tspan x="0" y="0" class="st6 st8">Save</tspan><tspan x="-4.2" y="8.4" class="st6 st8">Result</tspan></text>
<text transform="matrix(1 0 0 1 494.998 193.7447)"><tspan x="0" y="0" class="st6 st8">Fetch</tspan><tspan x="2.1" y="8.4" class="st6 st8">Data</tspan></text>
<text transform="matrix(1 0 0 1 554.998 193.7447)"><tspan x="0" y="0" class="st6 st8">Fetch</tspan><tspan x="2.1" y="8.4" class="st6 st8">Data</tspan></text>
<text transform="matrix(1 0 0 1 614.998 193.7447)"><tspan x="0" y="0" class="st6 st8">Fetch</tspan><tspan x="2.1" y="8.4" class="st6 st8">Data</tspan></text>
<text transform="matrix(1 0 0 1 434.8979 207.7447)"><tspan x="0" y="0" class="st9 st6 st8">Micro-</tspan><tspan x="4.2" y="8.4" class="st9 st6 st8">code</tspan><tspan x="6.3" y="16.8" class="st9 st6 st8">ROM</tspan></text>
<text transform="matrix(1 0 0 1 709.2993 100.7447)"><tspan x="0" y="0" class="st6 st8">L1</tspan><tspan x="-6.3" y="8.4" class="st6 st8">Cache</tspan><tspan x="-8.4" y="16.8" class="st6 st8">(Data)</tspan></text>
<text transform="matrix(1 0 0 1 709.2993 240.7447)"><tspan x="0" y="0" class="st6 st8">L1</tspan><tspan x="-6.3" y="8.4" class="st6 st8">Cache</tspan><tspan x="-12.6" y="16.8" class="st6 st8">(Instr.)</tspan></text>
<text transform="matrix(1 0 0 1 548.6973 37.7447)" class="st6 st8">Register</text>
<text transform="matrix(1 0 0 1 608.6973 37.7447)" class="st6 st8">Register</text>
<text transform="matrix(1 0 0 1 488.6973 37.7447)" class="st6 st8">Register</text>
<text transform="matrix(1 0 0 1 428.6973 37.7447)" class="st6 st8">Register</text>
<text transform="matrix(1 0 0 1 759.2993 170.7447)"><tspan x="0" y="0" class="st6 st8">L2</tspan><tspan x="-6.3" y="8.4" class="st6 st8">Cache</tspan></text>
<text transform="matrix(1 0 0 1 486.5967 273.7447)"><tspan x="0" y="0" class="st9 st6 st8">Interrupt</tspan><tspan x="10.5" y="8.4" class="st9 st6 st8">Unit</tspan></text>
<rect x="287.4" y="455.4" class="st11" width="91.9" height="34.7"/>
<text transform="matrix(1 0 0 1 321.0323 469.0782)"><tspan x="0" y="0" class="st6 st7">RAM</tspan><tspan x="-29.4" y="16.8" class="st6 st7">Controller</tspan></text>
<rect x="407.4" y="455.4" class="st11" width="91.9" height="34.7"/>
<text transform="matrix(1 0 0 1 441.0323 469.0782)"><tspan x="0" y="0" class="st6 st7">Bus</tspan><tspan x="-4.2" y="16.8" class="st6 st7">Unit</tspan></text>
</svg>
