<?xml version="1.0" encoding="utf-8"?>
<!-- Generator: Adobe Illustrator 19.1.0, SVG Export Plug-In . SVG Version: 6.00 Build 0)  -->
<svg version="1.1" id="Layer_1" xmlns="http://www.w3.org/2000/svg" xmlns:xlink="http://www.w3.org/1999/xlink" x="0px" y="0px"
	 viewBox="0 0 598.9 277.2" style="enable-background:new 0 0 598.9 277.2;" xml:space="preserve">
<style type="text/css">
	.st0{fill:#B3DEF2;stroke:#000000;stroke-width:0.25;stroke-miterlimit:10;}
	.st1{fill:#FCEC98;stroke:#000000;stroke-width:0.25;stroke-miterlimit:10;}
	.st2{fill:#FFFFFF;stroke:#000000;stroke-width:0.25;stroke-miterlimit:10;}
	.st3{fill:none;stroke:#000000;stroke-width:0.25;stroke-miterlimit:10;}
	.st4{fill:#D34A5B;stroke:#000000;stroke-width:0.25;stroke-miterlimit:10;}
	.st5{fill:#00AEEF;stroke:#000000;stroke-width:0.25;stroke-miterlimit:10;}
</style>
<g>
	<g>
		<polygon class="st0" points="108.8,179.2 159.8,223.6 159.8,215.9 108.8,171.5 		"/>
		<polygon class="st0" points="185.3,209.2 134.3,164.9 134.3,164.9 108.8,171.5 159.8,215.9 		"/>
		<polyline class="st0" points="159.8,223.6 159.8,215.9 185.3,209.2 185.3,216.9 185.4,216.9 159.9,223.6 		"/>
	</g>
	<g>
		<polygon class="st0" points="40.3,119.7 91.3,164 91.3,156.4 40.3,112 		"/>
		<polygon class="st0" points="116.8,149.7 65.8,105.4 65.8,105.4 40.3,112 91.3,156.4 		"/>
		<polyline class="st0" points="91.3,164 91.3,156.4 116.8,149.7 116.8,157.4 116.9,157.4 91.4,164 		"/>
	</g>
	<g>
		<polygon class="st0" points="37.6,123.9 12.1,130.6 115.8,220.8 141.3,214.1 		"/>
		<polygon class="st0" points="141.3,221.8 115.8,228.5 115.8,220.8 141.3,214.1 		"/>
		<polygon class="st0" points="115.8,228.5 115.8,220.8 12.1,130.6 12.1,138.2 		"/>
	</g>
</g>
<g>
	<polygon class="st0" points="588,148.8 566.8,130.4 150.7,238.6 171.9,257 	"/>
	<polyline class="st0" points="171.9,257 171.9,264.7 171.9,257 588,148.8 588,156.5 171.9,264.7 	"/>
	<polygon class="st0" points="150.7,246.3 171.9,264.7 171.9,257 150.7,238.6 	"/>
</g>
<g>
	<g>
		<polygon class="st0" points="443.1,91.8 494.1,136.2 494.1,128.5 443.1,84.2 		"/>
		<polygon class="st0" points="519.6,121.9 468.6,77.5 468.6,77.6 443.1,84.2 494.1,128.5 		"/>
		<polyline class="st0" points="494.1,136.2 494.1,128.5 519.6,121.9 519.6,129.5 519.7,129.5 494.2,136.2 		"/>
	</g>
	<g>
		<polygon class="st0" points="374.6,32.3 425.5,76.7 425.5,69 374.6,24.7 		"/>
		<polygon class="st0" points="451,62.4 400,18 400,18 374.6,24.7 425.5,69 		"/>
		<polyline class="st0" points="425.5,76.7 425.5,69 451,62.4 451,70 451.2,70 425.7,76.7 		"/>
	</g>
	<g>
		<polygon class="st0" points="445.8,11.3 420.3,17.9 524.1,108.2 549.5,101.5 		"/>
		<polygon class="st0" points="549.5,109.2 524.1,115.8 524.1,108.2 549.5,101.5 		"/>
		<polygon class="st0" points="524.1,115.8 524.1,108.2 420.3,17.9 420.3,25.6 		"/>
	</g>
</g>
<polygon class="st1" points="199.5,215.5 63.9,97.6 199.8,62.5 336.1,180.2 "/>
<polygon class="st1" points="347.5,177.5 211.9,59.6 347.8,24.5 484.1,142.2 "/>
<g>
	<g>
		<g>
			<g>
				<polyline class="st2" points="157.5,102.6 157.6,107.9 181.2,101.8 181.2,96.5 157.6,102.6 				"/>
				<polyline class="st2" points="157.5,102.6 150.2,96.3 173.8,90.2 181.2,96.5 157.6,102.6 				"/>
				<polygon class="st2" points="157.5,102.6 157.6,107.9 150.2,101.6 150.2,96.3 				"/>
			</g>
		</g>
		<g>
			<g>
				<polyline class="st2" points="141,124.7 141.1,130 164.7,123.8 164.7,118.6 141.1,124.7 				"/>
				<polyline class="st2" points="141,124.7 133.7,118.4 157.3,112.2 164.7,118.6 141.1,124.7 				"/>
				<polygon class="st2" points="141,124.7 141.1,130 133.7,123.6 133.7,118.4 				"/>
			</g>
			<g>
				<polyline class="st2" points="173.4,116.4 173.5,121.7 197.1,115.6 197.1,110.3 173.5,116.4 				"/>
				<polyline class="st2" points="173.4,116.4 166.1,110.1 189.7,104 197.1,110.3 173.5,116.4 				"/>
				<polygon class="st2" points="173.4,116.4 173.5,121.7 166.1,115.4 166.1,110.1 				"/>
			</g>
			<g>
				<polyline class="st2" points="205.8,108.1 205.8,113.4 229.5,107.3 229.5,102 205.8,108.1 				"/>
				<polyline class="st2" points="205.8,108.1 198.5,101.8 222.1,95.7 229.5,102 205.8,108.1 				"/>
				<polygon class="st2" points="205.8,108.1 205.8,113.4 198.5,107.1 198.5,101.8 				"/>
			</g>
		</g>
		<g>
			<g>
				<polyline class="st2" points="189.9,130.2 190,135.5 213.6,129.4 213.6,124.1 190,130.2 				"/>
				<polyline class="st2" points="189.9,130.2 182.6,123.9 206.2,117.7 213.6,124.1 190,130.2 				"/>
				<polygon class="st2" points="189.9,130.2 190,135.5 182.6,129.1 182.6,123.9 				"/>
			</g>
		</g>
		<g>
			<g>
				<polyline class="st2" points="173.4,152.3 173.5,157.5 197.1,151.4 197.1,146.1 173.5,152.3 				"/>
				<polyline class="st2" points="173.4,152.3 166.1,145.9 189.7,139.8 197.1,146.1 173.5,152.3 				"/>
				<polygon class="st2" points="173.4,152.3 173.5,157.5 166.1,151.2 166.1,145.9 				"/>
			</g>
			<g>
				<polyline class="st2" points="205.8,144 205.8,149.3 229.5,143.1 229.5,137.9 205.8,144 				"/>
				<polyline class="st2" points="205.8,144 198.5,137.6 222.1,131.5 229.5,137.9 205.8,144 				"/>
				<polygon class="st2" points="205.8,144 205.8,149.3 198.5,142.9 198.5,137.6 				"/>
			</g>
			<g>
				<polyline class="st2" points="238.1,135.7 238.2,141 261.9,134.9 261.9,129.6 238.2,135.7 				"/>
				<polyline class="st2" points="238.1,135.7 230.8,129.4 254.5,123.3 261.9,129.6 238.2,135.7 				"/>
				<polygon class="st2" points="238.1,135.7 238.2,141 230.9,134.7 230.9,129.4 				"/>
			</g>
		</g>
		<g>
			<g>
				<polyline class="st2" points="189.2,166 189.3,171.3 212.9,165.2 212.9,159.9 189.3,166 				"/>
				<polyline class="st2" points="189.2,166 181.9,159.7 205.5,153.6 212.9,159.9 189.3,166 				"/>
				<polygon class="st2" points="189.2,166 189.3,171.3 181.9,165 181.9,159.7 				"/>
			</g>
			<g>
				<polyline class="st2" points="221.6,157.8 221.7,163 245.3,156.9 245.3,151.6 221.7,157.8 				"/>
				<polyline class="st2" points="221.6,157.8 214.3,151.4 237.9,145.3 245.3,151.6 221.7,157.8 				"/>
				<polygon class="st2" points="221.6,157.8 221.7,163 214.3,156.7 214.3,151.4 				"/>
			</g>
			<g>
				<polyline class="st2" points="254,149.5 254.1,154.8 277.7,148.7 277.7,143.4 254.1,149.5 				"/>
				<polyline class="st2" points="254,149.5 246.7,143.2 270.3,137 277.7,143.4 254.1,149.5 				"/>
				<polygon class="st2" points="254,149.5 254.1,154.8 246.7,148.4 246.7,143.2 				"/>
			</g>
		</g>
		<g>
			<g>
				<polyline class="st2" points="238.1,171.5 238.2,176.8 261.9,170.7 261.9,165.4 238.2,171.5 				"/>
				<polyline class="st2" points="238.1,171.5 230.8,165.2 254.5,159.1 261.9,165.4 238.2,171.5 				"/>
				<polygon class="st2" points="238.1,171.5 238.2,176.8 230.9,170.5 230.9,165.2 				"/>
			</g>
		</g>
	</g>
	<g>
		<g>
			<line class="st3" x1="93.5" y1="102.2" x2="94.4" y2="103"/>
			<line class="st3" x1="96.7" y1="101.4" x2="97.6" y2="102.1"/>
			<line class="st3" x1="99.9" y1="100.5" x2="100.8" y2="101.4"/>
			<line class="st3" x1="103.2" y1="99.7" x2="104.1" y2="100.5"/>
			<line class="st3" x1="106.4" y1="98.9" x2="107.3" y2="99.7"/>
			<line class="st3" x1="109.7" y1="98.1" x2="110.4" y2="98.8"/>
			<g>
				<polygon class="st1" points="87.3,96.2 92,100.2 111.1,95.3 106.4,91.3 				"/>
				<polygon class="st1" points="92,100.2 111.1,95.3 111.1,97.7 92,102.7 				"/>
				<polygon class="st1" points="92,102.7 87.3,98.6 87.3,96.2 92,100.2 				"/>
			</g>
		</g>
		<g>
			<line class="st3" x1="120.5" y1="95.2" x2="121.4" y2="96"/>
			<line class="st3" x1="123.7" y1="94.4" x2="124.6" y2="95.1"/>
			<line class="st3" x1="126.9" y1="93.5" x2="127.8" y2="94.4"/>
			<line class="st3" x1="130.2" y1="92.7" x2="131.1" y2="93.5"/>
			<line class="st3" x1="133.4" y1="91.9" x2="134.3" y2="92.7"/>
			<line class="st3" x1="136.7" y1="91.1" x2="137.4" y2="91.8"/>
			<g>
				<polygon class="st1" points="114.3,89.2 119,93.2 138.1,88.3 133.4,84.3 				"/>
				<polygon class="st1" points="119,93.2 138.1,88.3 138.1,90.7 119,95.7 				"/>
				<polygon class="st1" points="119,95.7 114.3,91.6 114.3,89.2 119,93.2 				"/>
			</g>
		</g>
		<g>
			<line class="st3" x1="147.5" y1="88.2" x2="148.4" y2="89"/>
			<line class="st3" x1="150.7" y1="87.4" x2="151.6" y2="88.1"/>
			<line class="st3" x1="153.9" y1="86.5" x2="154.8" y2="87.4"/>
			<line class="st3" x1="157.2" y1="85.7" x2="158.1" y2="86.5"/>
			<line class="st3" x1="160.4" y1="84.9" x2="161.3" y2="85.7"/>
			<line class="st3" x1="163.7" y1="84.1" x2="164.4" y2="84.8"/>
			<g>
				<polygon class="st1" points="141.3,82.2 146,86.2 165.1,81.3 160.4,77.3 				"/>
				<polygon class="st1" points="146,86.2 165.1,81.3 165.1,83.7 146,88.7 				"/>
				<polygon class="st1" points="146,88.7 141.3,84.6 141.3,82.2 146,86.2 				"/>
			</g>
		</g>
		<g>
			<line class="st3" x1="174.5" y1="81.2" x2="175.4" y2="82"/>
			<line class="st3" x1="177.7" y1="80.4" x2="178.6" y2="81.1"/>
			<line class="st3" x1="180.9" y1="79.5" x2="181.8" y2="80.4"/>
			<line class="st3" x1="184.2" y1="78.7" x2="185.1" y2="79.5"/>
			<line class="st3" x1="187.4" y1="77.9" x2="188.3" y2="78.7"/>
			<line class="st3" x1="190.7" y1="77.1" x2="191.4" y2="77.8"/>
			<g>
				<polygon class="st1" points="168.3,75.2 173,79.2 192.1,74.3 187.4,70.3 				"/>
				<polygon class="st1" points="173,79.2 192.1,74.3 192.1,76.7 173,81.7 				"/>
				<polygon class="st1" points="173,81.7 168.3,77.6 168.3,75.2 173,79.2 				"/>
			</g>
		</g>
		<g>
			<line class="st3" x1="272.4" y1="166.6" x2="273.4" y2="167.4"/>
			<line class="st3" x1="275.7" y1="165.8" x2="276.6" y2="166.6"/>
			<line class="st3" x1="278.9" y1="165" x2="279.8" y2="165.8"/>
			<line class="st3" x1="282.2" y1="164.2" x2="283.1" y2="164.9"/>
			<line class="st3" x1="285.4" y1="163.3" x2="286.3" y2="164.1"/>
			<line class="st3" x1="288.6" y1="162.6" x2="289.4" y2="163.2"/>
			<g>
				<polygon class="st1" points="266.3,160.6 270.9,164.7 290.1,159.7 285.4,155.7 				"/>
				<polygon class="st1" points="270.9,164.7 290.1,159.7 290.1,162.1 270.9,167.1 				"/>
				<polygon class="st1" points="270.9,167.1 266.3,163.1 266.3,160.6 270.9,164.7 				"/>
			</g>
		</g>
	</g>
	<g>
		<polygon class="st4" points="204,178.8 208.7,182.8 227.8,177.8 223.2,173.8 		"/>
		<polygon class="st4" points="208.7,182.8 227.8,177.8 227.8,180.3 208.7,185.2 		"/>
		<polygon class="st4" points="208.7,185.2 204,181.2 204,178.8 208.7,182.8 		"/>
	</g>
	<g>
		<polygon class="st5" points="147,158 169.3,177.4 169.3,174 147,154.6 		"/>
		<polygon class="st5" points="180.5,171.1 158.2,151.7 158.2,151.7 147,154.6 169.3,174 		"/>
		<polyline class="st5" points="169.3,177.4 169.3,174 180.5,171.1 180.5,174.5 180.6,174.5 169.4,177.4 		"/>
	</g>
</g>
<g>
	<g>
		<g>
			<g>
				<polyline class="st2" points="305.3,65.4 305.4,70.7 329,64.6 329,59.3 305.4,65.4 				"/>
				<polyline class="st2" points="305.3,65.4 298,59.1 321.6,53 329,59.3 305.4,65.4 				"/>
				<polygon class="st2" points="305.3,65.4 305.4,70.7 298,64.4 298,59.1 				"/>
			</g>
		</g>
		<g>
			<g>
				<polyline class="st2" points="288.8,87.5 288.8,92.8 312.5,86.6 312.5,81.4 288.8,87.5 				"/>
				<polyline class="st2" points="288.8,87.5 281.5,81.2 305.1,75 312.5,81.4 288.8,87.5 				"/>
				<polygon class="st2" points="288.8,87.5 288.8,92.8 281.5,86.4 281.5,81.2 				"/>
			</g>
			<g>
				<polyline class="st2" points="321.1,79.2 321.2,84.5 344.9,78.4 344.9,73.1 321.2,79.2 				"/>
				<polyline class="st2" points="321.1,79.2 313.8,72.9 337.5,66.8 344.9,73.1 321.2,79.2 				"/>
				<polygon class="st2" points="321.1,79.2 321.2,84.5 313.9,78.2 313.9,72.9 				"/>
			</g>
			<g>
				<polyline class="st2" points="353.5,70.9 353.6,76.2 377.2,70.1 377.2,64.8 353.6,70.9 				"/>
				<polyline class="st2" points="353.5,70.9 346.2,64.6 369.9,58.5 377.2,64.8 353.6,70.9 				"/>
				<polygon class="st2" points="353.5,70.9 353.6,76.2 346.2,69.9 346.2,64.6 				"/>
			</g>
		</g>
		<g>
			<g>
				<polyline class="st2" points="337.7,93 337.8,98.3 361.4,92.2 361.4,86.9 337.8,93 				"/>
				<polyline class="st2" points="337.7,93 330.4,86.7 354,80.5 361.4,86.9 337.8,93 				"/>
				<polygon class="st2" points="337.7,93 337.8,98.3 330.4,91.9 330.4,86.7 				"/>
			</g>
		</g>
		<g>
			<g>
				<polyline class="st2" points="321.1,115 321.2,120.3 344.9,114.2 344.9,108.9 321.2,115 				"/>
				<polyline class="st2" points="321.1,115 313.8,108.7 337.5,102.6 344.9,108.9 321.2,115 				"/>
				<polygon class="st2" points="321.1,115 321.2,120.3 313.9,114 313.9,108.7 				"/>
			</g>
			<g>
				<polyline class="st2" points="353.5,106.8 353.6,112.1 377.2,105.9 377.2,100.7 353.6,106.8 				"/>
				<polyline class="st2" points="353.5,106.8 346.2,100.4 369.9,94.3 377.2,100.7 353.6,106.8 				"/>
				<polygon class="st2" points="353.5,106.8 353.6,112.1 346.2,105.7 346.2,100.4 				"/>
			</g>
			<g>
				<polyline class="st2" points="385.9,98.5 386,103.8 409.6,97.7 409.6,92.4 386,98.5 				"/>
				<polyline class="st2" points="385.9,98.5 378.6,92.2 402.2,86.1 409.6,92.4 386,98.5 				"/>
				<polygon class="st2" points="385.9,98.5 386,103.8 378.6,97.5 378.6,92.2 				"/>
			</g>
		</g>
		<g>
			<g>
				<polyline class="st2" points="337,128.8 337.1,134.1 360.7,128 360.7,122.7 337.1,128.8 				"/>
				<polyline class="st2" points="337,128.8 329.7,122.5 353.3,116.4 360.7,122.7 337.1,128.8 				"/>
				<polygon class="st2" points="337,128.8 337.1,134.1 329.7,127.8 329.7,122.5 				"/>
			</g>
			<g>
				<polyline class="st2" points="369.4,120.6 369.5,125.8 393.1,119.7 393.1,114.4 369.5,120.6 				"/>
				<polyline class="st2" points="369.4,120.6 362.1,114.2 385.7,108.1 393.1,114.4 369.5,120.6 				"/>
				<polygon class="st2" points="369.4,120.6 369.5,125.8 362.1,119.5 362.1,114.2 				"/>
			</g>
			<g>
				<polyline class="st2" points="401.8,112.3 401.9,117.6 425.5,111.4 425.5,106.2 401.9,112.3 				"/>
				<polyline class="st2" points="401.8,112.3 394.5,106 418.1,99.8 425.5,106.2 401.9,112.3 				"/>
				<polygon class="st2" points="401.8,112.3 401.9,117.6 394.5,111.2 394.5,106 				"/>
			</g>
		</g>
		<g>
			<g>
				<polyline class="st2" points="385.9,134.3 386,139.6 409.6,133.5 409.6,128.2 386,134.3 				"/>
				<polyline class="st2" points="385.9,134.3 378.6,128 402.2,121.9 409.6,128.2 386,134.3 				"/>
				<polygon class="st2" points="385.9,134.3 386,139.6 378.6,133.3 378.6,128 				"/>
			</g>
		</g>
	</g>
	<g>
		<g>
			<line class="st3" x1="241.2" y1="65" x2="242.2" y2="65.8"/>
			<line class="st3" x1="244.5" y1="64.2" x2="245.4" y2="64.9"/>
			<line class="st3" x1="247.7" y1="63.3" x2="248.6" y2="64.2"/>
			<line class="st3" x1="251" y1="62.5" x2="251.9" y2="63.3"/>
			<line class="st3" x1="254.2" y1="61.7" x2="255.1" y2="62.5"/>
			<line class="st3" x1="257.4" y1="60.9" x2="258.2" y2="61.6"/>
			<g>
				<polygon class="st1" points="235.1,59 239.7,63 258.9,58.1 254.2,54.1 				"/>
				<polygon class="st1" points="239.7,63 258.9,58.1 258.9,60.5 239.7,65.5 				"/>
				<polygon class="st1" points="239.7,65.5 235.1,61.4 235.1,59 239.7,63 				"/>
			</g>
		</g>
		<g>
			<line class="st3" x1="268.2" y1="58" x2="269.2" y2="58.8"/>
			<line class="st3" x1="271.5" y1="57.2" x2="272.4" y2="57.9"/>
			<line class="st3" x1="274.7" y1="56.3" x2="275.6" y2="57.2"/>
			<line class="st3" x1="278" y1="55.5" x2="278.9" y2="56.3"/>
			<line class="st3" x1="281.2" y1="54.7" x2="282.1" y2="55.5"/>
			<line class="st3" x1="284.4" y1="53.9" x2="285.2" y2="54.6"/>
			<g>
				<polygon class="st1" points="262.1,52 266.7,56 285.9,51.1 281.2,47.1 				"/>
				<polygon class="st1" points="266.7,56 285.9,51.1 285.9,53.5 266.7,58.5 				"/>
				<polygon class="st1" points="266.7,58.5 262.1,54.4 262.1,52 266.7,56 				"/>
			</g>
		</g>
		<g>
			<line class="st3" x1="295.2" y1="51" x2="296.2" y2="51.8"/>
			<line class="st3" x1="298.5" y1="50.2" x2="299.4" y2="50.9"/>
			<line class="st3" x1="301.7" y1="49.3" x2="302.6" y2="50.2"/>
			<line class="st3" x1="305" y1="48.5" x2="305.9" y2="49.3"/>
			<line class="st3" x1="308.2" y1="47.7" x2="309.1" y2="48.5"/>
			<line class="st3" x1="311.4" y1="46.9" x2="312.2" y2="47.6"/>
			<g>
				<polygon class="st1" points="289.1,45 293.7,49 312.9,44.1 308.2,40.1 				"/>
				<polygon class="st1" points="293.7,49 312.9,44.1 312.9,46.5 293.7,51.5 				"/>
				<polygon class="st1" points="293.7,51.5 289.1,47.4 289.1,45 293.7,49 				"/>
			</g>
		</g>
		<g>
			<line class="st3" x1="322.2" y1="44" x2="323.2" y2="44.8"/>
			<line class="st3" x1="325.5" y1="43.2" x2="326.4" y2="43.9"/>
			<line class="st3" x1="328.7" y1="42.3" x2="329.6" y2="43.2"/>
			<line class="st3" x1="332" y1="41.5" x2="332.9" y2="42.3"/>
			<line class="st3" x1="335.2" y1="40.7" x2="336.1" y2="41.5"/>
			<line class="st3" x1="338.4" y1="39.9" x2="339.2" y2="40.6"/>
			<g>
				<polygon class="st1" points="316.1,38 320.7,42 339.9,37.1 335.2,33.1 				"/>
				<polygon class="st1" points="320.7,42 339.9,37.1 339.9,39.5 320.7,44.5 				"/>
				<polygon class="st1" points="320.7,44.5 316.1,40.4 316.1,38 320.7,42 				"/>
			</g>
		</g>
		<g>
			<line class="st3" x1="420.2" y1="129.4" x2="421.1" y2="130.2"/>
			<line class="st3" x1="423.5" y1="128.6" x2="424.4" y2="129.4"/>
			<line class="st3" x1="426.7" y1="127.8" x2="427.6" y2="128.6"/>
			<line class="st3" x1="429.9" y1="127" x2="430.9" y2="127.7"/>
			<line class="st3" x1="433.2" y1="126.1" x2="434.1" y2="126.9"/>
			<line class="st3" x1="436.4" y1="125.4" x2="437.2" y2="126"/>
			<g>
				<polygon class="st1" points="414,123.4 418.7,127.5 437.9,122.5 433.2,118.5 				"/>
				<polygon class="st1" points="418.7,127.5 437.9,122.5 437.9,124.9 418.7,129.9 				"/>
				<polygon class="st1" points="418.7,129.9 414,125.9 414,123.4 418.7,127.5 				"/>
			</g>
		</g>
	</g>
	<g>
		<polygon class="st4" points="351.8,141.6 356.5,145.6 375.6,140.6 370.9,136.6 		"/>
		<polygon class="st4" points="356.5,145.6 375.6,140.6 375.6,143.1 356.5,148 		"/>
		<polygon class="st4" points="356.5,148 351.8,144 351.8,141.6 356.5,145.6 		"/>
	</g>
	<g>
		<polygon class="st5" points="294.8,120.8 317.1,140.2 317.1,136.8 294.8,117.4 		"/>
		<polygon class="st5" points="328.3,133.9 306,114.5 306,114.5 294.8,117.4 317.1,136.8 		"/>
		<polyline class="st5" points="317.1,140.2 317.1,136.8 328.3,133.9 328.3,137.3 328.3,137.3 317.2,140.2 		"/>
	</g>
</g>
<g>
	<polygon class="st1" points="410.5,205.8 357.5,219.6 378.6,238 431.7,224.2 	"/>
	<polyline class="st1" points="378.6,245.1 378.6,238 431.7,224.2 431.7,231.3 431.7,231.1 378.6,244.9 	"/>
	<polygon class="st1" points="378.6,245.1 357.5,226.7 357.5,219.6 378.6,238 	"/>
</g>
</svg>
