<?xml version="1.0" encoding="utf-8"?>
<!-- Generator: Adobe Illustrator 19.1.0, SVG Export Plug-In . SVG Version: 6.00 Build 0)  -->
<svg version="1.1" id="Layer_1" xmlns="http://www.w3.org/2000/svg" xmlns:xlink="http://www.w3.org/1999/xlink" x="0px" y="0px"
	 viewBox="-154 140 482.6 189" style="enable-background:new -154 140 482.6 189;" xml:space="preserve">
<style type="text/css">
	.st0{fill:#929497;}
	.st1{fill:#FFFFFF;}
	.st2{font-family:'CourierNewPSMT';}
	.st3{font-size:8.8021px;}
	.st4{fill:#231F20;}
	.st5{fill:#FFFFFF;stroke:#231F20;stroke-width:0.25;stroke-miterlimit:10;}
	.st6{fill:none;stroke:#231F20;stroke-width:0.25;stroke-miterlimit:10;}
</style>
<rect x="57.4" y="300.3" class="st0" width="133.1" height="16.1"/>
<rect x="57.4" y="286.5" class="st0" width="106.7" height="16.1"/>
<rect x="57.4" y="271.8" class="st0" width="58.2" height="16.1"/>
<text transform="matrix(1 0 0 1 58.1571 310.8086)" class="st1 st2 st3">[base+(index*scale)+disp]</text>
<rect x="57.4" y="257.2" class="st0" width="34.2" height="16.1"/>
<text transform="matrix(1 0 0 1 58.121 282.2197)" class="st1 st2 st3">[base+disp]</text>
<text transform="matrix(1 0 0 1 58.1571 267.5488)" class="st1 st2 st3">[base]</text>
<text transform="matrix(1 0 0 1 58.121 296.8896)" class="st1 st2 st3">[(index*scale)+disp]</text>
<rect x="57.4" y="220.5" class="st0" width="32.7" height="16.1"/>
<g>
	<text transform="matrix(1 0 0 1 -120.4884 157.8213)" class="st4 st2 st3">Addressing Modes</text>
</g>
<g>
	<text transform="matrix(1 0 0 1 -105.8194 194.4971)" class="st4 st2 st3">Immediate</text>
</g>
<g>
	<text transform="matrix(1 0 0 1 -106.0392 208.7725)" class="st4 st2 st3">Memory</text>
</g>
<g>
	<text transform="matrix(1 0 0 1 -105.8194 179.8272)" class="st4 st2 st3">Register</text>
</g>
<g>
	<text transform="matrix(1 0 0 1 -91.1495 230.7764)" class="st4 st2 st3">Direct</text>
</g>
<g>
	<text transform="matrix(1 0 0 1 -91.1495 245.4473)" class="st4 st2 st3">Indirect</text>
</g>
<text transform="matrix(1 0 0 1 58.1571 230.5996)" class="st1 st2 st3">[disp]</text>
<g>
	<text transform="matrix(1 0 0 1 -76.4786 311.7744)" class="st4 st2 st3">Based-Indexed</text>
</g>
<g>
	<text transform="matrix(1 0 0 1 -76.4786 296.793)" class="st4 st2 st3">Indexed</text>
</g>
<g>
	<text transform="matrix(1 0 0 1 -76.4786 282.1217)" class="st4 st2 st3">Based</text>
</g>
<g>
	<text transform="matrix(1 0 0 1 -76.4786 267.4521)" class="st4 st2 st3">Register Indirect</text>
</g>
<g>
	<g>
		<line class="st5" x1="-117.6" y1="204.3" x2="-117.6" y2="165.2"/>
		<line class="st5" x1="-117.6" y1="176.5" x2="-109.3" y2="176.5"/>
		<line class="st5" x1="-109.3" y1="191.1" x2="-117.6" y2="191.1"/>
		<line class="st5" x1="-109.3" y1="204.3" x2="-117.6" y2="204.3"/>
	</g>
</g>
<g>
	<g>
		<line class="st6" x1="-102.9" y1="242.5" x2="-102.9" y2="216.5"/>
		<line class="st6" x1="-102.9" y1="227.8" x2="-94.7" y2="227.8"/>
		<line class="st6" x1="-94.7" y1="242.5" x2="-102.9" y2="242.5"/>
	</g>
</g>
<g>
	<g>
		<line class="st6" x1="-88.2" y1="307" x2="-88.2" y2="253.2"/>
		<line class="st6" x1="-88.2" y1="264.5" x2="-80" y2="264.5"/>
		<line class="st6" x1="-80" y1="279.2" x2="-88.2" y2="279.2"/>
		<line class="st6" x1="-80" y1="292.4" x2="-88.2" y2="292.4"/>
		<line class="st6" x1="-80" y1="307" x2="-88.2" y2="307"/>
	</g>
</g>
</svg>
