<?xml version="1.0" encoding="utf-8"?>
<!-- Generator: Adobe Illustrator 19.1.0, SVG Export Plug-In . SVG Version: 6.00 Build 0)  -->
<svg version="1.1" id="Layer_1" xmlns="http://www.w3.org/2000/svg" xmlns:xlink="http://www.w3.org/1999/xlink" x="0px" y="0px"
	 viewBox="-154 176 482.6 262" style="enable-background:new -154 176 482.6 262;" xml:space="preserve">
<style type="text/css">
	.st0{fill:#B3DEF2;stroke:#000000;stroke-width:0.25;stroke-miterlimit:10;}
	.st1{fill:#FCEC98;stroke:#000000;stroke-width:0.25;stroke-miterlimit:10;}
	.st2{fill:none;stroke:#000000;stroke-width:0.25;stroke-miterlimit:10;}
</style>
<g>
	<g>
		<polygon class="st0" points="7.6,321.6 28,339.2 28,336.2 7.6,318.5 		"/>
		<polygon class="st0" points="38.1,333.6 17.8,315.9 17.8,315.9 7.6,318.5 28,336.2 		"/>
		<polyline class="st0" points="28,339.2 28,336.2 38.1,333.6 38.1,336.6 38.2,336.6 28,339.2 		"/>
	</g>
	<g>
		<polygon class="st0" points="-19.7,297.9 0.7,315.5 0.7,312.5 -19.7,294.8 		"/>
		<polygon class="st0" points="10.8,309.8 -9.5,292.2 -9.5,292.2 -19.7,294.8 0.7,312.5 		"/>
		<polyline class="st0" points="0.7,315.5 0.7,312.5 10.8,309.8 10.8,312.9 10.9,312.9 0.7,315.5 		"/>
	</g>
	<g>
		<polygon class="st0" points="-20.8,299.6 -30.9,302.2 10.4,338.2 20.6,335.5 		"/>
		<polygon class="st0" points="20.6,338.6 10.4,341.2 10.4,338.2 20.6,335.5 		"/>
		<polygon class="st0" points="10.4,341.2 10.4,338.2 -30.9,302.2 -30.9,305.2 		"/>
	</g>
</g>
<g>
	<polygon class="st0" points="198.6,309.5 190.2,302.1 24.3,345.3 32.8,352.6 	"/>
	<polyline class="st0" points="32.8,352.6 32.8,355.6 32.8,352.6 198.6,309.5 198.6,312.6 32.8,355.6 	"/>
	<polygon class="st0" points="24.3,348.4 32.8,355.6 32.8,352.6 24.3,345.3 	"/>
</g>
<g>
	<g>
		<polygon class="st0" points="142.1,286.4 162.4,304 162.4,301 142.1,283.3 		"/>
		<polygon class="st0" points="172.5,298.3 152.2,280.7 152.2,280.7 142.1,283.3 162.4,301 		"/>
		<polyline class="st0" points="162.4,304 162.4,301 172.5,298.3 172.5,301.4 172.6,301.4 162.4,304 		"/>
	</g>
	<g>
		<polygon class="st0" points="114.7,262.7 135.1,280.3 135.1,277.3 114.7,259.6 		"/>
		<polygon class="st0" points="145.2,274.6 124.9,256.9 124.9,256.9 114.7,259.6 135.1,277.3 		"/>
		<polyline class="st0" points="135.1,280.3 135.1,277.3 145.2,274.6 145.2,277.7 145.3,277.7 135.1,280.3 		"/>
	</g>
	<g>
		<polygon class="st0" points="143.1,254.3 133,256.9 174.3,292.9 184.5,290.2 		"/>
		<polygon class="st0" points="184.5,293.3 174.3,296 174.3,292.9 184.5,290.2 		"/>
		<polygon class="st0" points="174.3,296 174.3,292.9 133,256.9 133,260 		"/>
	</g>
</g>
<g>
	<polygon class="st1" points="48.7,274 102.7,321 102.7,312.9 48.7,265.8 	"/>
	<polygon class="st1" points="157.1,306.9 102.7,321 102.7,312.9 157.1,298.8 	"/>
	<polygon class="st1" points="156.9,298.8 102.9,251.8 48.7,265.8 102.7,312.9 	"/>
</g>
<g>
	<polygon class="st1" points="-10.3,289.1 43.8,336.1 43.8,328 -10.3,280.9 	"/>
	<polygon class="st1" points="98.2,322 43.8,336.1 43.8,328 98.2,313.9 	"/>
	<polygon class="st1" points="98,313.9 44,266.9 -10.3,280.9 43.8,328 	"/>
</g>
<g>
	<g>
		<g>
			<g>
				<polyline class="st1" points="31.6,376.5 -76.7,282.3 148,223.9 256.4,318.1 31.7,376.5 				"/>
				<polygon class="st1" points="31.6,394.4 -76.7,300.2 -76.7,282.3 31.6,376.5 				"/>
				<polygon class="st1" points="256.4,318.1 31.6,376.5 31.6,394.4 256.4,336 				"/>
			</g>
		</g>
	</g>
	<g>
		<line class="st2" x1="-57.6" y1="284.5" x2="141.8" y2="232.7"/>
		<line class="st2" x1="-57.6" y1="284.5" x2="38" y2="367.7"/>
		<line class="st2" x1="38" y1="367.7" x2="237.4" y2="315.9"/>
		<line class="st2" x1="141.8" y1="232.7" x2="237.4" y2="315.9"/>
		<line class="st2" x1="-44.9" y1="295.6" x2="141.8" y2="247.1"/>
		<line class="st2" x1="141.8" y1="247.1" x2="224.6" y2="319.2"/>
		<line class="st2" x1="141.8" y1="232.7" x2="141.8" y2="247.1"/>
	</g>
</g>
<g>
	<g>
		<polygon class="st0" points="7.6,321.6 28,339.2 28,336.2 7.6,318.5 		"/>
		<polygon class="st0" points="38.1,333.6 17.8,315.9 17.8,315.9 7.6,318.5 28,336.2 		"/>
		<polyline class="st0" points="28,339.2 28,336.2 38.1,333.6 38.1,336.6 38.2,336.6 28,339.2 		"/>
	</g>
	<g>
		<polygon class="st0" points="-19.7,297.9 0.7,315.5 0.7,312.5 -19.7,294.8 		"/>
		<polygon class="st0" points="10.8,309.8 -9.5,292.2 -9.5,292.2 -19.7,294.8 0.7,312.5 		"/>
		<polyline class="st0" points="0.7,315.5 0.7,312.5 10.8,309.8 10.8,312.9 10.9,312.9 0.7,315.5 		"/>
	</g>
	<g>
		<polygon class="st0" points="-20.8,299.6 -30.9,302.2 10.4,338.2 20.6,335.5 		"/>
		<polygon class="st0" points="20.6,338.6 10.4,341.2 10.4,338.2 20.6,335.5 		"/>
		<polygon class="st0" points="10.4,341.2 10.4,338.2 -30.9,302.2 -30.9,305.2 		"/>
	</g>
</g>
<g>
	<polygon class="st0" points="198.6,309.5 190.2,302.1 24.3,345.3 32.8,352.6 	"/>
	<polyline class="st0" points="32.8,352.6 32.8,355.6 32.8,352.6 198.6,309.5 198.6,312.6 32.8,355.6 	"/>
	<polygon class="st0" points="24.3,348.4 32.8,355.6 32.8,352.6 24.3,345.3 	"/>
</g>
<g>
	<g>
		<polygon class="st0" points="142.1,286.4 162.4,304 162.4,301 142.1,283.3 		"/>
		<polygon class="st0" points="172.5,298.3 152.2,280.7 152.2,280.7 142.1,283.3 162.4,301 		"/>
		<polyline class="st0" points="162.4,304 162.4,301 172.5,298.3 172.5,301.4 172.6,301.4 162.4,304 		"/>
	</g>
	<g>
		<polygon class="st0" points="114.7,262.7 135.1,280.3 135.1,277.3 114.7,259.6 		"/>
		<polygon class="st0" points="145.2,274.6 124.9,256.9 124.9,256.9 114.7,259.6 135.1,277.3 		"/>
		<polyline class="st0" points="135.1,280.3 135.1,277.3 145.2,274.6 145.2,277.7 145.3,277.7 135.1,280.3 		"/>
	</g>
	<g>
		<polygon class="st0" points="143.1,254.3 133,256.9 174.3,292.9 184.5,290.2 		"/>
		<polygon class="st0" points="184.5,293.3 174.3,296 174.3,292.9 184.5,290.2 		"/>
		<polygon class="st0" points="174.3,296 174.3,292.9 133,256.9 133,260 		"/>
	</g>
</g>
<g>
	<polygon class="st1" points="48.7,274 102.7,321 102.7,312.9 48.7,265.8 	"/>
	<polygon class="st1" points="157.1,306.9 102.7,321 102.7,312.9 157.1,298.8 	"/>
	<polygon class="st1" points="156.9,298.8 102.9,251.8 48.7,265.8 102.7,312.9 	"/>
</g>
<g>
	<polygon class="st1" points="-10.3,289.1 43.8,336.1 43.8,328 -10.3,280.9 	"/>
	<polygon class="st1" points="98.2,322 43.8,336.1 43.8,328 98.2,313.9 	"/>
	<polygon class="st1" points="98,313.9 44,266.9 -10.3,280.9 43.8,328 	"/>
</g>
<g>
	<polygon class="st1" points="132.1,332.6 106.6,339.2 116.7,348.1 142.3,341.4 	"/>
	<polyline class="st1" points="116.7,351.5 116.7,348.1 142.3,341.4 142.3,344.8 142.3,344.7 116.7,351.4 	"/>
	<polygon class="st1" points="116.7,351.5 106.6,342.6 106.6,339.2 116.7,348.1 	"/>
</g>
<polyline class="st1" points="31.6,376.5 256.4,318.1 237.4,315.9 38,367.7 31.7,376.5 "/>
<line class="st2" x1="141.8" y1="232.7" x2="148" y2="223.9"/>
<line class="st2" x1="-57.6" y1="284.5" x2="-76.7" y2="282.3"/>
</svg>
